<svg width="170" height="251" viewBox="0 0 170 251" fill="none" xmlns="http://www.w3.org/2000/svg">
<path d="M41.3427 175.273L67.302 121.368C74.6338 106.143 89.4277 95.8917 106.258 94.374L124.747 92.7067C136.559 91.6416 146.014 82.4576 147.424 70.6822V70.6822C148.089 65.1232 150.593 59.9461 154.537 55.9733L187.605 22.6707C197.557 12.6483 210.726 6.45794 224.793 5.18946L262.908 1.75245" stroke="#979797" stroke-opacity="0.2"/>
<path d="M49.3383 187.739L75.2975 133.834C82.6294 118.609 97.4233 108.358 114.253 106.84L132.743 105.173C144.554 104.108 154.01 94.9241 155.419 83.1486V83.1486C156.084 77.5897 158.588 72.4125 162.533 68.4397L195.601 35.1372C205.553 25.1147 218.721 18.9244 232.788 17.6559L270.903 14.2189" stroke="#979797" stroke-opacity="0.2"/>
<path d="M54.122 203.321L80.0812 149.415C87.4131 134.191 102.207 123.939 119.037 122.422L137.526 120.754C149.338 119.689 158.794 110.505 160.203 98.7299V98.7299C160.868 93.171 163.372 87.9938 167.317 84.021L200.385 50.7185C210.337 40.696 223.505 34.5057 237.572 33.2372L275.687 29.8002" stroke="#979797" stroke-opacity="0.2"/>
<path d="M60.9277 217.549L86.887 163.644C94.2188 148.419 109.013 138.168 125.843 136.65L144.332 134.983C156.144 133.918 165.599 124.734 167.008 112.958V112.958C167.674 107.399 170.178 102.222 174.122 98.2494L207.19 64.9468C217.142 54.9244 230.311 48.7341 244.378 47.4656L282.493 44.0286" stroke="#979797" stroke-opacity="0.2"/>
<path d="M66.0474 231.446L92.0067 177.54C99.3385 162.316 114.132 152.065 130.962 150.547L149.452 148.88C161.263 147.814 170.719 138.63 172.128 126.855V126.855C172.793 121.296 175.297 116.119 179.242 112.146L212.31 78.8436C222.262 68.8211 235.431 62.6308 249.498 61.3623L287.613 57.9253" stroke="#979797" stroke-opacity="0.2"/>
<path d="M69.1475 246.692L95.1068 192.787C102.439 177.562 117.233 167.311 134.063 165.793L152.552 164.126C164.364 163.061 173.819 153.877 175.228 142.101V142.101C175.893 136.542 178.397 131.365 182.342 127.392L215.41 94.0897C225.362 84.0672 238.531 77.8769 252.598 76.6084L290.713 73.1714" stroke="#979797" stroke-opacity="0.2"/>
<path d="M35.702 159.768L61.6613 105.863C68.9931 90.6377 83.787 80.3865 100.617 78.8689L119.106 77.2016C130.918 76.1365 140.374 66.9525 141.783 55.177V55.177C142.448 49.6181 144.952 44.4409 148.897 40.4682L181.965 7.1656C191.917 -2.85684 205.085 -9.04719 219.152 -10.3157L257.267 -13.7527" stroke="#979797" stroke-opacity="0.2"/>
<path d="M24.2219 146.984L50.1812 93.0786C57.5131 77.8537 72.307 67.6026 89.1369 66.085L107.626 64.4177C119.438 63.3526 128.894 54.1686 130.303 42.3931V42.3931C130.968 36.8342 133.472 31.657 137.417 27.6842L170.485 -5.61834C180.437 -15.6408 193.605 -21.8311 207.672 -23.0996L245.787 -26.5366" stroke="#979797" stroke-opacity="0.2"/>
<path d="M14.7608 132.849L40.72 78.9433C48.0519 63.7185 62.8458 53.4673 79.6758 51.9497L98.1652 50.2824C109.977 49.2173 119.433 40.0333 120.842 28.2578V28.2578C121.507 22.6989 124.011 17.5217 127.955 13.549L161.024 -19.7536C170.975 -29.776 184.144 -35.9664 198.211 -37.2349L236.326 -40.6719" stroke="#979797" stroke-opacity="0.2"/>
<path d="M138.124 -11.1111C106.131 0.0669549 115.584 25.3122 101.306 33.2672C83.6007 40.8711 62.1393 29.1516 60.3233 10.2598C58.5073 -8.6319 79.3058 -35.9268 92.0577 -37.1526C104.81 -38.3784 136.308 -30.0029 138.124 -11.1111Z" stroke="#979797" stroke-opacity="0.2"/>
<path d="M124.922 -13.4133C103.197 -5.82288 109.617 11.3197 99.9207 16.7215C87.8983 21.8848 73.3251 13.9268 72.092 1.09851C70.8589 -11.7298 84.9819 -30.2641 93.641 -31.0965C102.3 -31.9288 123.689 -26.2415 124.922 -13.4133Z" stroke="#979797" stroke-opacity="0.2"/>
<path d="M109.739 -11.4384C100.067 -8.05918 102.925 -0.427407 98.6083 1.97742C93.256 4.27611 86.7681 0.73324 86.2191 -4.97782C85.6701 -10.6889 91.9576 -18.9403 95.8126 -19.3108C99.6676 -19.6814 109.19 -17.1494 109.739 -11.4384Z" stroke="#979797" stroke-opacity="0.2"/>
</svg>
