<svg width="14" height="16" viewBox="0 0 14 16" fill="none" xmlns="http://www.w3.org/2000/svg">
<path d="M5.63861 14.9895C6.07628 15.3496 6.53272 15.6788 7 16C7.46829 15.683 7.92251 15.3459 8.36139 14.9895C9.093 14.3904 9.78153 13.7408 10.4219 13.0455C11.8981 11.4357 13.5 9.10201 13.5 6.4824C13.5 5.63112 13.3319 4.78817 13.0052 4.00169C12.6786 3.21521 12.1998 2.5006 11.5962 1.89865C10.9926 1.2967 10.2761 0.819214 9.48744 0.493443C8.69883 0.167672 7.85359 0 7 0C6.14641 0 5.30117 0.167672 4.51256 0.493443C3.72394 0.819214 3.00739 1.2967 2.40381 1.89865C1.80022 2.5006 1.32144 3.21521 0.994783 4.00169C0.668127 4.78817 0.5 5.63112 0.5 6.4824C0.5 9.10201 2.10189 11.4349 3.57811 13.0455C4.21845 13.741 4.90697 14.3901 5.63861 14.9895ZM7 8.82326C6.37748 8.82326 5.78045 8.57664 5.34026 8.13764C4.90007 7.69864 4.65278 7.10323 4.65278 6.4824C4.65278 5.86156 4.90007 5.26615 5.34026 4.82716C5.78045 4.38816 6.37748 4.14153 7 4.14153C7.62252 4.14153 8.21955 4.38816 8.65974 4.82716C9.09993 5.26615 9.34722 5.86156 9.34722 6.4824C9.34722 7.10323 9.09993 7.69864 8.65974 8.13764C8.21955 8.57664 7.62252 8.82326 7 8.82326Z" fill="#CDFF49"/>
</svg>
