<svg width="39" height="37" viewBox="0 0 39 37" fill="none" xmlns="http://www.w3.org/2000/svg">
<path fill-rule="evenodd" clip-rule="evenodd" d="M20.1732 0.522245C21.5375 0.522245 22.846 1.05902 23.8107 2.0145C24.7755 2.96997 25.3175 4.26588 25.3175 5.61712C25.3175 6.96837 24.7755 8.26427 23.8107 9.21974C22.846 10.1752 21.5375 10.712 20.1732 10.712C18.8088 10.712 17.5003 10.1752 16.5356 9.21974C15.5708 8.26427 15.0288 6.96837 15.0288 5.61712C15.0288 4.26588 15.5708 2.96997 16.5356 2.0145C17.5003 1.05902 18.8088 0.522245 20.1732 0.522245ZM12.2121 15.0275L13.5231 15.6783L9.10077 24.9224C8.93768 25.2471 8.44526 25.5717 8.11909 25.4086L3.6857 24.2732C2.37626 23.9486 1.06524 24.7594 0.739071 26.0578C0.411316 27.3546 1.22991 28.653 2.53935 28.9776L6.97274 30.113C7.46358 30.2745 7.95442 30.2745 8.44526 30.2745C10.9026 30.2745 13.0307 28.8161 13.8492 26.5439L14.177 25.5717L18.1085 28.1669C18.1933 28.1721 18.2732 28.2078 18.3333 28.2673C18.3934 28.3268 18.4294 28.406 18.4346 28.49L20.7273 35.0385C21.2182 36.0107 22.0384 36.4984 23.02 36.4984C23.3478 36.4984 23.6755 36.4984 24.0017 36.3369C25.3127 35.6877 25.8052 34.3909 25.3127 33.0924L23.02 26.5439C22.5292 25.5717 21.8737 24.7609 20.892 24.1117L16.1419 21.0303L17.9438 17.7859L20.2365 18.9212C22.3661 19.8934 24.9866 19.5704 26.7868 17.7859L29.8063 14.7656C30.788 13.7934 30.788 12.3319 29.8063 11.3596C28.8246 10.3874 27.3505 10.3874 26.3672 11.3596L23.3478 14.3799C23.02 14.7045 22.6939 14.7045 22.3661 14.543L17.9438 12.2723L14.3417 10.4878C12.8676 9.83854 11.3935 9.67703 9.91936 10.1631C8.44684 10.6493 7.29891 11.7846 6.64499 13.083L4.35229 17.3907C3.86145 18.526 4.35229 19.986 5.49863 20.6352C6.72257 21.2405 8.05259 20.8516 8.77301 19.6614L11.0657 15.3537C11.3935 15.0291 11.8843 14.866 12.2121 15.0275ZM26.2311 28.1669L25.5186 27.6965L24.89 25.9041C24.8625 25.8246 24.8293 25.7462 24.7902 25.6689C24.1696 24.4379 23.3003 23.348 21.9893 22.4824L21.9766 22.473L19.2437 20.701L19.2754 20.6383L19.3514 20.6759L19.3831 20.6916L19.4068 20.7026C21.0111 21.4366 22.8181 21.6145 24.5369 21.2075L29.0146 24.1133C29.9979 24.7625 30.6534 25.5717 31.1442 26.5455L33.4369 33.094C33.9278 34.3924 33.4369 35.6893 32.1275 36.3385C31.7997 36.5 31.472 36.5 31.1442 36.5C30.1626 36.5 29.3424 36.0139 28.8515 35.0416L26.5588 28.4915C26.5588 28.33 26.3958 28.1669 26.2311 28.1669ZM34.4914 11.3596L32.5122 13.3386C32.4473 14.3532 32.0119 15.3505 31.2091 16.1472L28.4129 18.9447C30.5331 19.8887 33.125 19.5563 34.911 17.7859L37.9305 14.7656C38.9122 13.7934 38.9122 12.3319 37.9305 11.3596C36.9472 10.3874 35.4731 10.3874 34.4914 11.3596ZM25.7292 1.20125C26.746 2.45246 27.2992 4.01098 27.2967 5.61712C27.2967 6.84183 26.9816 7.99442 26.4258 8.99959C27.9807 8.35665 29.7984 8.65146 31.1126 9.88245C32.2458 9.16201 33.0486 8.03019 33.3487 6.73002C33.6487 5.42985 33.422 4.065 32.7173 2.92853C32.0125 1.79206 30.8859 0.974587 29.5793 0.651639C28.2728 0.32869 26.8904 0.526016 25.7292 1.20125Z" fill="#35B555"/>
</svg>
