<svg width="29" height="32" viewBox="0 0 29 32" fill="none" xmlns="http://www.w3.org/2000/svg">
<path fill-rule="evenodd" clip-rule="evenodd" d="M14.6667 32C16.5053 32 18.3258 31.641 20.0243 30.9435C21.7229 30.246 23.2662 29.2236 24.5662 27.9348C25.8663 26.6459 26.8975 25.1159 27.6011 23.4319C28.3046 21.748 28.6667 19.9432 28.6667 18.1205C28.6667 16.2978 28.3046 14.493 27.6011 12.809C26.8975 11.1251 25.8663 9.59501 24.5662 8.30618C23.2662 7.01735 21.7229 5.99499 20.0243 5.29748C18.3258 4.59997 16.5053 4.24096 14.6667 4.24096C10.9537 4.24096 7.39276 5.70327 4.76725 8.30618C2.14174 10.9091 0.666748 14.4394 0.666748 18.1205C0.666748 21.8016 2.14174 25.3319 4.76725 27.9348C7.39276 30.5377 10.9537 32 14.6667 32ZM14.6667 10.7952C14.9762 10.7952 15.2729 10.917 15.4917 11.1339C15.7105 11.3509 15.8334 11.6451 15.8334 11.9518V18.1205C15.8334 18.4272 15.7105 18.7214 15.4917 18.9383C15.2729 19.1552 14.9762 19.2771 14.6667 19.2771C14.3573 19.2771 14.0606 19.1552 13.8418 18.9383C13.623 18.7214 13.5001 18.4272 13.5001 18.1205V11.9518C13.5001 11.6451 13.623 11.3509 13.8418 11.1339C14.0606 10.917 14.3573 10.7952 14.6667 10.7952ZM10.389 1.15663C10.389 0.84987 10.5119 0.555678 10.7307 0.338768C10.9495 0.121859 11.2462 0 11.5556 0H17.7779C18.0873 0 18.384 0.121859 18.6028 0.338768C18.8216 0.555678 18.9445 0.84987 18.9445 1.15663C18.9445 1.46338 18.8216 1.75758 18.6028 1.97449C18.384 2.19139 18.0873 2.31325 17.7779 2.31325H11.5556C11.2462 2.31325 10.9495 2.19139 10.7307 1.97449C10.5119 1.75758 10.389 1.46338 10.389 1.15663Z" fill="#3665F9"/>
</svg>
