<svg width="36" height="39" viewBox="0 0 36 39" fill="none" xmlns="http://www.w3.org/2000/svg">
<path d="M25.875 7.625C26.8033 7.625 27.6935 7.25625 28.3499 6.59987C29.0063 5.9435 29.375 5.05326 29.375 4.125C29.375 3.19674 29.0063 2.3065 28.3499 1.65013C27.6935 0.993749 26.8033 0.625 25.875 0.625C24.9467 0.625 24.0565 0.993749 23.4001 1.65013C22.7437 2.3065 22.375 3.19674 22.375 4.125C22.375 5.05326 22.7437 5.9435 23.4001 6.59987C24.0565 7.25625 24.9467 7.625 25.875 7.625ZM19.575 31.95L21.325 24.25L25 27.75V38.25H28.5V25.125L24.825 21.625L25.875 16.375C27.0741 17.749 28.5535 18.8503 30.2137 19.6049C31.8738 20.3596 33.6764 20.75 35.5 20.75V17.25C32.42 17.3025 29.55 15.6925 27.975 13.05L26.225 10.25C25.595 9.2 24.475 8.5 23.25 8.5C22.725 8.5 22.375 8.675 21.85 8.675L12.75 12.525V20.75H16.25V14.8L19.4 13.575L16.6 27.75L8.025 26L7.325 29.5L19.575 31.95ZM4 13.75C3.53587 13.75 3.09075 13.5656 2.76256 13.2374C2.43437 12.9092 2.25 12.4641 2.25 12C2.25 11.5359 2.43437 11.0908 2.76256 10.7626C3.09075 10.4344 3.53587 10.25 4 10.25H9.25V13.75H4ZM5.75 6.75C5.28587 6.75 4.84075 6.56563 4.51256 6.23744C4.18437 5.90925 4 5.46413 4 5C4 4.53587 4.18437 4.09075 4.51256 3.76256C4.84075 3.43437 5.28587 3.25 5.75 3.25H14.5V6.75H5.75ZM2.25 20.75C1.78587 20.75 1.34075 20.5656 1.01256 20.2374C0.684374 19.9092 0.5 19.4641 0.5 19C0.5 18.5359 0.684374 18.0908 1.01256 17.7626C1.34075 17.4344 1.78587 17.25 2.25 17.25H9.25V20.75H2.25Z" fill="#3665F9"/>
</svg>
