<svg width="19" height="24" viewBox="0 0 19 24" fill="none" xmlns="http://www.w3.org/2000/svg">
<path d="M0 24C0 18.9505 4.25329 14.8571 9.5 14.8571C14.7467 14.8571 19 18.9505 19 24H16.625C16.625 20.2129 13.435 17.1429 9.5 17.1429C5.56497 17.1429 2.375 20.2129 2.375 24H0ZM9.5 13.7143C5.56344 13.7143 2.375 10.6457 2.375 6.85714C2.375 3.06857 5.56344 0 9.5 0C13.4366 0 16.625 3.06857 16.625 6.85714C16.625 10.6457 13.4366 13.7143 9.5 13.7143ZM9.5 11.4286C12.1244 11.4286 14.25 9.38286 14.25 6.85714C14.25 4.33143 12.1244 2.28571 9.5 2.28571C6.87563 2.28571 4.75 4.33143 4.75 6.85714C4.75 9.38286 6.87563 11.4286 9.5 11.4286Z" fill="#8D8D9A"/>
</svg>
