<svg width="24" height="24" viewBox="0 0 24 24" fill="none" xmlns="http://www.w3.org/2000/svg">
<path d="M22.8333 2.25004H19.5833V1.16671C19.5833 0.879389 19.4692 0.603839 19.266 0.400675C19.0628 0.197511 18.7873 0.083374 18.5 0.083374H5.49998C5.21266 0.083374 4.93711 0.197511 4.73395 0.400675C4.53078 0.603839 4.41665 0.879389 4.41665 1.16671V2.25004H1.16665C0.879328 2.25004 0.603778 2.36418 0.400614 2.56734C0.19745 2.77051 0.083313 3.04606 0.083313 3.33337V5.50004C0.0872405 6.79732 0.557183 8.05 1.40749 9.02975C2.25779 10.0095 3.43184 10.6511 4.71565 10.8376C5.12016 12.2398 5.92016 13.4957 7.01991 14.455C8.11965 15.4143 9.47254 16.0363 10.9166 16.2467V18.5H6.58331C6.35585 18.5 6.13414 18.5715 5.94962 18.7045C5.76509 18.8375 5.62711 19.0252 5.55523 19.241L4.4719 22.491C4.41765 22.6539 4.40289 22.8273 4.42881 22.997C4.45474 23.1667 4.52062 23.3278 4.62103 23.467C4.72143 23.6063 4.85348 23.7196 5.0063 23.7978C5.15911 23.876 5.32832 23.9167 5.49998 23.9167H18.5C18.6715 23.9166 18.8406 23.8757 18.9933 23.7974C19.146 23.7192 19.2779 23.6058 19.3782 23.4666C19.4784 23.3274 19.5442 23.1663 19.5701 22.9967C19.596 22.8271 19.5812 22.6538 19.527 22.491L18.4436 19.241C18.3718 19.0254 18.234 18.8378 18.0497 18.7048C17.8654 18.5719 17.6439 18.5002 17.4166 18.5H13.0833V16.2467C14.5274 16.0363 15.8803 15.4143 16.9801 14.455C18.0798 13.4957 18.8798 12.2398 19.2843 10.8376C20.5681 10.6511 21.7422 10.0095 22.5925 9.02975C23.4428 8.05 23.9127 6.79732 23.9166 5.50004V3.33337C23.9166 3.04606 23.8025 2.77051 23.5993 2.56734C23.3962 2.36418 23.1206 2.25004 22.8333 2.25004ZM4.41665 8.56479C3.78343 8.33991 3.23528 7.92465 2.84738 7.37595C2.45947 6.82726 2.2508 6.172 2.24998 5.50004V4.41671H4.41665V8.56479ZM16.6356 20.6667L16.9963 21.75H7.00256L7.3644 20.6667H16.6356ZM17.4166 8.75004C17.4166 10.1866 16.846 11.5644 15.8301 12.5802C14.8143 13.596 13.4366 14.1667 12 14.1667C10.5634 14.1667 9.18564 13.596 8.16982 12.5802C7.154 11.5644 6.58331 10.1866 6.58331 8.75004V2.25004H17.4166V8.75004ZM21.75 5.50004C21.7492 6.172 21.5405 6.82726 21.1526 7.37595C20.7647 7.92465 20.2165 8.33991 19.5833 8.56479V4.41671H21.75V5.50004ZM10.5559 8.38929L8.74998 6.89971L10.9166 6.58337L12 4.41671L13.0833 6.58337L15.25 6.89971L13.4441 8.38929L14.0085 10.9167L12 9.47262L9.99148 10.9167L10.5559 8.38929Z" fill="#8D8D9A"/>
</svg>
