<svg width="23" height="28" viewBox="0 0 23 28" fill="none" xmlns="http://www.w3.org/2000/svg">
<path fill-rule="evenodd" clip-rule="evenodd" d="M19.2138 16.1375L21.8888 21.6125H21.9138C22.3513 22.5 22.6513 23.1125 22.4388 23.7125C22.3777 23.9287 22.2456 24.118 22.0638 24.25C21.5263 24.6375 20.6138 24.6875 19.5138 24.3875C19.0638 24.2625 18.5138 24.125 18.4138 24.15C18.2513 24.2625 18.0763 24.7 17.9138 25.1125C17.3263 26.575 16.7013 27.3125 15.9513 27.425H15.6638C14.7713 27.2875 14.4688 26.4875 13.9763 25.18L13.9638 25.15L11.9888 19.9125L11.9563 19.915C11.8188 19.9275 11.6913 19.9375 11.5513 19.9375C11.4771 19.9366 11.4042 19.9325 11.3325 19.925C11.2608 19.9175 11.1879 19.9133 11.1138 19.9125L9.13875 25.1375C8.58875 26.6 8.00125 27.3 7.23875 27.425H6.95125C6.05625 27.3 5.7425 26.5075 5.2225 25.195L5.21375 25.175L5.1575 25.0362C5 24.6512 4.84125 24.2637 4.75125 24.1737C4.56375 24.1112 4.05125 24.2487 3.58875 24.3737C2.50125 24.6737 1.56375 24.6237 1.02625 24.2362C0.910256 24.1616 0.815525 24.0583 0.751251 23.9362C0.371251 23.2737 0.678751 22.6337 1.14 21.6737L1.165 21.6237L3.84 16.1362C2.59 14.5112 1.84 12.4737 1.84 10.2612C1.84 4.92373 6.19 0.57373 11.5275 0.57373C16.865 0.57373 21.215 4.92373 21.215 10.2612C21.215 12.4737 20.465 14.4987 19.215 16.1362M7.165 24.9987C7.2275 24.8612 7.3025 24.6862 7.3775 24.4862L7.39 24.4737L9.215 19.6362C7.74574 19.279 6.38298 18.5762 5.24 17.5862L2.8775 22.4237L2.765 22.6487C2.8775 22.6362 2.99 22.6112 3.115 22.5737C4.065 22.3112 4.64 22.1612 5.265 22.3612C5.465 22.4237 5.64 22.5112 5.815 22.6237C6.3625 22.9887 6.59 23.555 6.93625 24.4137L6.965 24.4862C7.00584 24.5962 7.04792 24.7046 7.09125 24.8112L7.165 24.9987ZM11.54 2.44873C7.2275 2.44873 3.7275 5.94873 3.7275 10.2612C3.7275 14.5737 7.2275 18.0737 11.54 18.0737C15.8525 18.0737 19.3525 14.5737 19.3525 10.2612C19.3525 5.94873 15.8525 2.44873 11.54 2.44873ZM17.8275 22.3737C18.4525 22.1737 19.0275 22.3237 19.9775 22.5862V22.5987C20.115 22.6237 20.2275 22.6487 20.3275 22.6737L20.2775 22.5675C20.2625 22.5333 20.2458 22.4979 20.2275 22.4612L17.8525 17.5987C16.7275 18.5612 15.365 19.2737 13.8775 19.6487L15.7025 24.4862C15.7567 24.6137 15.8067 24.7391 15.8525 24.8625L15.9025 24.9987C15.9775 24.8487 16.065 24.6612 16.1525 24.4362C16.5025 23.5487 16.715 23.0112 17.2775 22.6362C17.4525 22.5237 17.6275 22.4362 17.8275 22.3737ZM13.715 6.98623L15.6775 7.31123H15.7275C16.24 7.39873 16.665 7.76123 16.8275 8.26123C16.99 8.77373 16.865 9.32373 16.5025 9.71123L15.065 11.2112L15.3775 13.3112C15.4525 13.8612 15.2275 14.3862 14.79 14.6987C14.365 14.9987 13.8025 15.0362 13.34 14.7862L11.5775 13.8487L9.815 14.7862C9.615 14.8987 9.39 14.9487 9.165 14.9487C8.89 14.9487 8.6025 14.8737 8.365 14.6987C7.915 14.3862 7.7025 13.8487 7.7775 13.3112L8.09 11.2112L6.6525 9.71123C6.2775 9.32373 6.1525 8.77373 6.3275 8.26123C6.49 7.76123 6.915 7.39873 7.4275 7.31123L9.39 6.98623L10.3025 5.11123C10.54 4.62373 11.0275 4.32373 11.5525 4.32373C12.0775 4.32373 12.565 4.62373 12.8025 5.11123L13.715 6.98623ZM13.14 11.2612C13.0775 10.8237 13.215 10.3737 13.515 10.0612L14.515 9.01123L13.1525 8.78623C12.9325 8.7473 12.7249 8.65676 12.5468 8.52204C12.3686 8.38732 12.2249 8.21226 12.1275 8.01123L11.54 6.79873L10.9525 8.01123C10.7525 8.42373 10.365 8.71123 9.9275 8.78623L8.565 9.01123L9.565 10.0612C9.865 10.3737 10.0025 10.8237 9.94 11.2612L9.7275 12.6737L10.89 12.0612C11.09 11.9487 11.315 11.8987 11.54 11.8987C11.765 11.8987 11.99 11.9487 12.19 12.0612L13.3525 12.6737L13.14 11.2612Z" fill="#121212"/>
</svg>
