<svg width="46" height="46" viewBox="0 0 46 46" fill="none" xmlns="http://www.w3.org/2000/svg">
<rect width="46" height="46" rx="23" fill="#3F79C4"/>
<path fill-rule="evenodd" clip-rule="evenodd" d="M10.5 23C10.5 16.0963 16.0963 10.5 23 10.5C29.9037 10.5 35.5 16.0963 35.5 23C35.5 29.9037 29.9037 35.5 23 35.5C16.0963 35.5 10.5 29.9037 10.5 23ZM23 13C20.3478 13 17.8043 14.0536 15.9289 15.9289C14.0536 17.8043 13 20.3478 13 23C13 25.6522 14.0536 28.1957 15.9289 30.0711C17.8043 31.9464 20.3478 33 23 33C25.6522 33 28.1957 31.9464 30.0711 30.0711C31.9464 28.1957 33 25.6522 33 23C33 20.3478 31.9464 17.8043 30.0711 15.9289C28.1957 14.0536 25.6522 13 23 13Z" fill="#FFFFFF"/>
<path fill-rule="evenodd" clip-rule="evenodd" d="M24.25 16.75C24.25 16.4185 24.1183 16.1005 23.8839 15.8661C23.6495 15.6317 23.3315 15.5 23 15.5C22.6685 15.5 22.3505 15.6317 22.1161 15.8661C21.8817 16.1005 21.75 16.4185 21.75 16.75V21.75H16.75C16.4185 21.75 16.1005 21.8817 15.8661 22.1161C15.6317 22.3505 15.5 22.6685 15.5 23C15.5 23.3315 15.6317 23.6495 15.8661 23.8839C16.1005 24.1183 16.4185 24.25 16.75 24.25H21.75V29.25C21.75 29.5815 21.8817 29.8995 22.1161 30.1339C22.3505 30.3683 22.6685 30.5 23 30.5C23.3315 30.5 23.6495 30.3683 23.8839 30.1339C24.1183 29.8995 24.25 29.5815 24.25 29.25V24.25H29.25C29.5815 24.25 29.8995 24.1183 30.1339 23.8839C30.3683 23.6495 30.5 23.3315 30.5 23C30.5 22.6685 30.3683 22.3505 30.1339 22.1161C29.8995 21.8817 29.5815 21.75 29.25 21.75H24.25V16.75Z" fill="#FFFFFF"/>
</svg>
