<svg width="26" height="26" viewBox="0 0 26 26" fill="none" xmlns="http://www.w3.org/2000/svg">
<path fill-rule="evenodd" clip-rule="evenodd" d="M0.5 13C0.5 6.09625 6.09625 0.5 13 0.5C19.9037 0.5 25.5 6.09625 25.5 13C25.5 19.9037 19.9037 25.5 13 25.5C6.09625 25.5 0.5 19.9037 0.5 13ZM13 3C10.3478 3 7.8043 4.05357 5.92893 5.92893C4.05357 7.8043 3 10.3478 3 13C3 15.6522 4.05357 18.1957 5.92893 20.0711C7.8043 21.9464 10.3478 23 13 23C15.6522 23 18.1957 21.9464 20.0711 20.0711C21.9464 18.1957 23 15.6522 23 13C23 10.3478 21.9464 7.8043 20.0711 5.92893C18.1957 4.05357 15.6522 3 13 3Z" fill="#3F79C4"/>
<path fill-rule="evenodd" clip-rule="evenodd" d="M14.25 6.75C14.25 6.41848 14.1183 6.10054 13.8839 5.86612C13.6495 5.6317 13.3315 5.5 13 5.5C12.6685 5.5 12.3505 5.6317 12.1161 5.86612C11.8817 6.10054 11.75 6.41848 11.75 6.75V11.75H6.75C6.41848 11.75 6.10054 11.8817 5.86612 12.1161C5.6317 12.3505 5.5 12.6685 5.5 13C5.5 13.3315 5.6317 13.6495 5.86612 13.8839C6.10054 14.1183 6.41848 14.25 6.75 14.25H11.75V19.25C11.75 19.5815 11.8817 19.8995 12.1161 20.1339C12.3505 20.3683 12.6685 20.5 13 20.5C13.3315 20.5 13.6495 20.3683 13.8839 20.1339C14.1183 19.8995 14.25 19.5815 14.25 19.25V14.25H19.25C19.5815 14.25 19.8995 14.1183 20.1339 13.8839C20.3683 13.6495 20.5 13.3315 20.5 13C20.5 12.6685 20.3683 12.3505 20.1339 12.1161C19.8995 11.8817 19.5815 11.75 19.25 11.75H14.25V6.75Z" fill="#3F79C4"/>
</svg>
