<svg width="393" height="128" viewBox="0 0 393 128" fill="none" xmlns="http://www.w3.org/2000/svg">
<g clip-path="url(#clip0_263_50)">
<path d="M393 0H0V128H393V0Z" fill="#E4F0FF"/>
<mask id="mask0_263_50" style="mask-type:luminance" maskUnits="userSpaceOnUse" x="0" y="0" width="393" height="128">
<path d="M393 0H0V128H393V0Z" fill="white"/>
</mask>
<g mask="url(#mask0_263_50)">
<path d="M93.5106 126.877C79.6997 136.771 65.6483 117.595 53.5353 110.647C30.3803 96.2974 31.8729 97.1867 39.0342 87.8677C62.4594 101.079 69.1833 128.316 93.5106 126.877Z" fill="url(#paint0_linear_263_50)"/>
<path d="M93.5108 126.877C69.1599 128.301 62.5039 101.117 39.0347 87.8678C42.1054 75.4808 48.5857 74.1455 48.5857 74.1455C53.2126 78.7612 50.46 88.5514 71.1322 90.4818C74.2259 90.7708 72.7674 86.5076 72.7674 86.5076C74.7776 84.1006 77.7458 84.5341 77.7458 84.5341C74.9561 115.005 99.9741 122.841 92.9674 127.318C93.1732 127.172 93.3538 127.025 93.5108 126.877Z" fill="url(#paint1_linear_263_50)"/>
<path d="M92.6411 127.535C92.7434 127.471 92.8388 127.407 92.9312 127.342C92.8383 127.407 92.7436 127.471 92.6411 127.535Z" fill="url(#paint2_linear_263_50)"/>
<path d="M56.9713 105.529C51.6152 97.9251 42.4125 93.567 37.103 90.2795C37.8077 89.5064 38.5298 88.7249 39.0346 87.8682C62.4598 101.079 69.1838 128.316 93.511 126.877C88.7829 127.099 73.4966 128.991 56.9713 105.529Z" fill="url(#paint3_linear_263_50)"/>
<path d="M73.947 102.726C71.705 97.7574 67.2112 93.8815 63.4067 91.3016C67.7835 91.5951 71.132 90.4816 71.132 90.4816C72.1876 83.7155 77.7459 84.534 77.7459 84.534C77.3166 96.8758 79.9659 107.16 89.2498 118.435C82.8472 117.239 78.013 111.737 73.947 102.726Z" fill="url(#paint4_linear_263_50)"/>
<path d="M315.428 80.6619C316.775 82.9455 316.55 85.4479 317.364 87.7671L321.358 95.8047L332.326 89.4092L328.333 81.3717C326.996 79.36 324.941 78.1819 323.925 75.708C322.577 73.4254 322.803 70.9218 321.989 68.603L317.444 59.4553C316.301 57.7909 305.816 63.8904 306.475 65.8511L311.02 74.9985C312.358 77.011 314.412 78.1873 315.428 80.6619Z" fill="url(#paint5_linear_263_50)"/>
<path d="M309.273 71.482C308.617 69.5247 319.095 63.4162 320.241 65.0865L319.122 62.8335C317.976 61.1624 307.496 67.2732 308.153 69.229" fill="url(#paint6_linear_263_50)"/>
<path d="M319.66 92.3878C319.005 90.4304 329.483 84.322 330.629 85.9923L329.509 83.7392C328.364 82.0682 317.884 88.1789 318.541 90.1347" fill="url(#paint7_linear_263_50)"/>
<path d="M321.358 95.8048C320.702 93.848 331.18 87.7388 332.326 89.4096C332.981 91.3662 322.503 97.4754 321.358 95.8048Z" fill="url(#paint8_linear_263_50)"/>
<path d="M326.841 92.6069C349.85 138.915 387.388 161.1 408.324 148.893C429.26 136.686 405.972 96.9494 387.758 104.339C366.143 113.108 398.347 153.261 437.003 135.434" stroke="url(#paint9_linear_263_50)" stroke-width="3.3183" stroke-miterlimit="10" stroke-linecap="round" stroke-linejoin="round"/>
<path d="M25.5618 57.5338C23.7453 59.3967 21.4344 59.6291 19.485 60.9316L12.9507 66.6948L20.8152 77.1594L27.3497 71.3964C28.9214 69.5948 29.6026 67.1868 31.6538 65.6398C33.4694 63.7761 35.7815 63.5448 37.7304 62.2418L45.1673 55.6827C46.4611 54.1532 38.956 44.1478 37.3028 45.2181L29.8662 51.7767C28.2933 53.5789 27.6137 55.9861 25.5618 57.5338Z" fill="url(#paint10_linear_263_50)"/>
<path d="M32.7246 49.2555C34.3756 48.1893 41.8876 58.1865 40.5891 59.72L42.4208 58.1046C43.7198 56.5708 36.2057 46.5728 34.5565 47.6401" fill="url(#paint11_linear_263_50)"/>
<path d="M15.7295 64.2448C17.3805 63.1785 24.8925 73.1757 23.594 74.7093L25.4257 73.0939C26.7246 71.56 19.2106 61.5621 17.5614 62.6294" fill="url(#paint12_linear_263_50)"/>
<path d="M12.9509 66.6951C14.6015 65.6293 22.1141 75.6258 20.8151 77.1599C19.1646 78.2253 11.6519 68.2289 12.9509 66.6951Z" fill="url(#paint13_linear_263_50)"/>
<path d="M-100.158 72.8996C-63.673 107.593 -21.347 114.185 -5.662 94.8282C10.023 75.4712 -24.6064 47.0424 -39.2927 60.855C-56.7219 77.2474 -13.6042 102.695 16.8748 71.3698" stroke="url(#paint14_linear_263_50)" stroke-width="3.3183" stroke-miterlimit="10" stroke-linecap="round" stroke-linejoin="round"/>
<path d="M96.4877 28.1034C99.2416 28.1034 101.474 25.685 101.474 22.7018C101.474 19.7187 99.2416 17.3003 96.4877 17.3003C93.7339 17.3003 91.5015 19.7187 91.5015 22.7018C91.5015 25.685 93.7339 28.1034 96.4877 28.1034Z" stroke="url(#paint15_linear_263_50)" stroke-width="3.2634" stroke-miterlimit="10"/>
<path d="M93.9536 31.201L91.1509 29.51L94.7413 22.5269L97.5441 24.2179L93.9536 31.201Z" fill="url(#paint16_linear_263_50)"/>
<path d="M96.4963 26.2178L93.723 24.5444C93.1375 24.191 92.927 23.3902 93.2532 22.7559C93.5795 22.1216 94.3187 21.8935 94.9043 22.247L97.6776 23.9204C98.2632 24.2738 98.4737 25.0746 98.1474 25.7089C97.8211 26.3432 97.0819 26.5713 96.4963 26.2178Z" fill="url(#paint17_linear_263_50)"/>
<path d="M84.2791 66.9948C94.7552 66.9948 103.248 57.795 103.248 46.4464C103.248 35.0978 94.7552 25.8979 84.2791 25.8979C73.8031 25.8979 65.3105 35.0978 65.3105 46.4464C65.3105 57.795 73.8031 66.9948 84.2791 66.9948Z" fill="url(#paint18_linear_263_50)"/>
<path d="M84.279 63.7512C93.1014 63.7512 100.253 56.0035 100.253 46.4464C100.253 36.8892 93.1014 29.1416 84.279 29.1416C75.4566 29.1416 68.3047 36.8892 68.3047 46.4464C68.3047 56.0035 75.4566 63.7512 84.279 63.7512Z" fill="url(#paint19_linear_263_50)"/>
<path d="M84.279 63.7512C93.1014 63.7512 100.253 56.0035 100.253 46.4464C100.253 36.8892 93.1014 29.1416 84.279 29.1416C75.4566 29.1416 68.3047 36.8892 68.3047 46.4464C68.3047 56.0035 75.4566 63.7512 84.279 63.7512Z" fill="url(#paint20_linear_263_50)"/>
<path d="M84.2788 62.7802C92.6062 62.7802 99.3569 55.4672 99.3569 46.4462C99.3569 37.4253 92.6062 30.1123 84.2788 30.1123C75.9514 30.1123 69.2007 37.4253 69.2007 46.4462C69.2007 55.4672 75.9514 62.7802 84.2788 62.7802Z" fill="url(#paint21_linear_263_50)"/>
<mask id="mask1_263_50" style="mask-type:luminance" maskUnits="userSpaceOnUse" x="69" y="30" width="31" height="33">
<path d="M84.2788 62.7802C92.6062 62.7802 99.3569 55.4672 99.3569 46.4462C99.3569 37.4253 92.6062 30.1123 84.2788 30.1123C75.9514 30.1123 69.2007 37.4253 69.2007 46.4462C69.2007 55.4672 75.9514 62.7802 84.2788 62.7802Z" fill="white"/>
</mask>
<g mask="url(#mask1_263_50)">
<path d="M90.7306 33.8975C90.4983 33.7575 90.415 33.4399 90.5443 33.1886L91.4289 31.468C91.5581 31.2164 91.8513 31.1261 92.0833 31.2661C92.3156 31.4062 92.3989 31.7237 92.2697 31.9751L91.3851 33.6957C91.2558 33.9473 90.9629 34.0376 90.7306 33.8975Z" fill="#E4F0FF"/>
<path d="M84.0741 32.0838C83.8084 32.0882 83.5896 31.8584 83.5856 31.5706L83.5577 29.6015C83.5536 29.3137 83.7658 29.0767 84.0315 29.0723C84.2971 29.068 84.5159 29.2978 84.5199 29.5856L84.5479 31.5547C84.5519 31.8425 84.34 32.0795 84.0741 32.0838Z" fill="#E4F0FF"/>
<path d="M77.4723 34.1186C77.2443 34.2664 76.9488 34.1858 76.8124 33.9388L75.8793 32.2488C75.7429 32.0018 75.8173 31.6817 76.0453 31.5339C76.2733 31.3862 76.5688 31.4667 76.7052 31.7137L77.6383 33.4038C77.7747 33.6508 77.7003 33.9709 77.4723 34.1186Z" fill="#E4F0FF"/>
<path d="M72.6945 39.4568C72.5653 39.7084 72.2721 39.7987 72.0401 39.6587L70.4518 38.7004C70.2195 38.5604 70.1362 38.2428 70.2655 37.9914C70.3947 37.7398 70.6879 37.6495 70.9199 37.7896L72.5082 38.7478C72.7405 38.8879 72.8238 39.2052 72.6945 39.4568Z" fill="#E4F0FF"/>
<path d="M71.0203 46.6676C71.0243 46.9554 70.8122 47.1924 70.5465 47.1968L68.7288 47.227C68.4631 47.2314 68.2443 47.0016 68.2403 46.7138C68.2363 46.426 68.4484 46.189 68.7141 46.1846L70.5318 46.1544C70.7975 46.15 71.0163 46.3796 71.0203 46.6676Z" fill="#E4F0FF"/>
<path d="M72.8986 53.8197C73.035 54.0667 72.9606 54.3868 72.7326 54.5345L71.1725 55.5454C70.9445 55.6931 70.649 55.6126 70.5126 55.3656C70.3762 55.1186 70.4506 54.7985 70.6786 54.6507L72.2387 53.6399C72.4665 53.4921 72.762 53.5727 72.8986 53.8197Z" fill="#E4F0FF"/>
<path d="M77.8255 58.9956C78.0578 59.1357 78.1411 59.4532 78.0118 59.7046L77.1273 61.4252C76.998 61.6768 76.7048 61.7671 76.4728 61.627C76.2405 61.487 76.1572 61.1694 76.2865 60.9181L77.1711 59.1975C77.3003 58.9459 77.5935 58.8556 77.8255 58.9956Z" fill="#E4F0FF"/>
<path d="M84.4821 60.8091C84.7478 60.8048 84.9666 61.0346 84.9706 61.3224L84.9986 63.2915C85.0026 63.5793 84.7904 63.8163 84.5248 63.8207C84.2591 63.825 84.0403 63.5952 84.0363 63.3074L84.0084 61.3383C84.0043 61.0505 84.2165 60.8135 84.4821 60.8091Z" fill="#E4F0FF"/>
<path d="M91.0849 58.7746C91.3129 58.6269 91.6084 58.7074 91.7448 58.9544L92.6779 60.6445C92.8143 60.8915 92.74 61.2116 92.5119 61.3594C92.2839 61.5071 91.9884 61.4266 91.852 61.1796L90.9189 59.4895C90.7825 59.2427 90.8566 58.9226 91.0849 58.7746Z" fill="#E4F0FF"/>
<path d="M95.8626 53.4368C95.9919 53.1851 96.285 53.0948 96.5171 53.2349L98.1054 54.1932C98.3376 54.3332 98.421 54.6508 98.2917 54.9021C98.1624 55.1537 97.8693 55.244 97.6373 55.104L96.049 54.1457C95.8167 54.0057 95.7334 53.6881 95.8626 53.4368Z" fill="#E4F0FF"/>
<path d="M97.5367 46.2255C97.5327 45.9377 97.7448 45.7007 98.0105 45.6963L99.8282 45.6661C100.094 45.6617 100.313 45.8915 100.317 46.1793C100.321 46.4671 100.109 46.7041 99.8429 46.7085L98.0251 46.7387C97.7595 46.7431 97.5407 46.5133 97.5367 46.2255Z" fill="#E4F0FF"/>
<path d="M95.6591 39.0736C95.5227 38.8266 95.5971 38.5065 95.8251 38.3587L97.3852 37.3479C97.6132 37.2001 97.9087 37.2807 98.0451 37.5277C98.1815 37.7747 98.1071 38.0948 97.8791 38.2425L96.319 39.2534C96.091 39.4011 95.7955 39.3209 95.6591 39.0736Z" fill="#E4F0FF"/>
</g>
<path d="M96.2115 42.373C96.2115 42.373 90.9831 43.1861 84.8506 45.2794L85.3649 47.0472C91.4973 44.9539 96.2115 42.373 96.2115 42.373Z" fill="#E4F0FF"/>
<path d="M81.2983 59.6099C81.2983 59.6099 83.3708 54.3469 84.9025 47.5821L83.2408 47.1406C81.7091 53.9052 81.2983 59.6099 81.2983 59.6099Z" fill="#E4F0FF"/>
<path d="M84.2786 48.7054C85.4303 48.7054 86.3639 47.6941 86.3639 46.4465C86.3639 45.1989 85.4303 44.1875 84.2786 44.1875C83.127 44.1875 82.1934 45.1989 82.1934 46.4465C82.1934 47.6941 83.127 48.7054 84.2786 48.7054Z" fill="#E4F0FF"/>
<path d="M51.8606 -26.8387C39.3539 -40.3871 19.0762 -40.3871 6.5695 -26.8387C-5.93723 -13.2903 -5.93723 8.67628 6.5695 22.2247C19.0762 35.7733 39.3539 35.7733 51.8606 22.2247C64.3674 8.67628 64.3674 -13.2903 51.8606 -26.8387ZM38.4187 7.66312C33.3356 13.1696 25.0943 13.1696 20.0115 7.66312C14.9286 2.15666 14.9284 -6.77095 20.0115 -12.2772C25.0946 -17.7834 33.3358 -17.7836 38.4187 -12.2772C43.5015 -6.77069 43.5018 2.15666 38.4187 7.66312Z" fill="url(#paint22_linear_263_50)"/>
<path d="M316.923 9.45748C311.84 3.95102 303.599 3.95102 298.515 9.45748C293.432 14.9639 293.432 23.8916 298.515 29.398C303.599 34.9045 311.84 34.9045 316.923 29.398C322.006 23.8916 322.006 14.9639 316.923 9.45748ZM311.46 23.4799C309.394 25.7178 306.044 25.7178 303.979 23.4799C301.913 21.242 301.913 17.6136 303.979 15.3756C306.044 13.1377 309.394 13.1377 311.46 15.3756C313.526 17.6136 313.526 21.242 311.46 23.4799Z" fill="url(#paint23_linear_263_50)"/>
<path d="M129.526 93.8367C125.952 89.9646 120.156 89.9646 116.582 93.8367C113.007 97.7087 113.007 103.987 116.582 107.859C120.156 111.731 125.951 111.731 129.526 107.859C133.101 103.987 133.101 97.7087 129.526 93.8367ZM125.684 103.697C124.232 105.271 121.876 105.271 120.423 103.697C118.971 102.124 118.971 99.5722 120.423 97.9986C121.876 96.425 124.231 96.425 125.684 97.9986C127.137 99.5722 127.137 102.124 125.684 103.697Z" fill="url(#paint24_linear_263_50)"/>
<path d="M11.304 105.535C-1.20272 91.9869 -21.4804 91.9869 -33.9871 105.535C-46.4939 119.084 -46.4939 141.05 -33.9871 154.599C-21.4804 168.147 -1.20272 168.147 11.304 154.599C23.811 141.05 23.811 119.084 11.304 105.535ZM-2.13799 140.037C-7.22108 145.544 -15.4623 145.544 -20.5452 140.037C-25.6283 134.531 -25.6283 125.603 -20.5452 120.097C-15.4621 114.591 -7.22085 114.59 -2.13799 120.097C2.94488 125.603 2.94511 134.531 -2.13799 140.037Z" fill="url(#paint25_linear_263_50)"/>
<path d="M294.45 94.2464L291.201 91.5807L295.462 85.4866C295.836 84.9518 296.539 84.8469 297.033 85.2519L298.494 86.451C298.988 86.856 299.085 87.6178 298.711 88.1524L294.45 94.2464Z" fill="url(#paint26_linear_263_50)"/>
<path d="M287.88 90.1035L296.663 97.3095L297.771 95.7243L288.989 88.5181L287.88 90.1035Z" fill="url(#paint27_linear_263_50)"/>
<path d="M288.146 88.737L297.805 96.663L299.564 94.1468C299.873 93.7043 299.793 93.0741 299.385 92.7391L291.204 86.0266C290.796 85.6916 290.214 85.7786 289.905 86.2208L288.146 88.737Z" fill="url(#paint28_linear_263_50)"/>
<path d="M283.598 124.989C285.519 122.243 288.049 120.416 290.569 119.695C291.152 119.528 291.659 119.136 292.023 118.615L294.752 114.713L294.911 114.486C297.009 111.485 297.93 107.708 297.475 103.976L296.662 97.3095L287.88 90.1035L281.735 91.0613C278.296 91.5974 275.19 93.5811 273.091 96.5821L272.932 96.8091L270.204 100.711C269.84 101.232 269.629 101.867 269.638 102.52C269.68 105.343 268.742 108.477 266.822 111.223C264.901 113.969 262.371 115.796 259.851 116.518C259.268 116.685 258.761 117.077 258.397 117.598L246.95 133.968C246.134 135.136 249.565 141.222 255.59 146.166C261.615 151.11 267.953 153.039 268.769 151.871L280.216 135.501C280.58 134.98 280.791 134.345 280.782 133.692C280.74 130.869 281.678 127.736 283.598 124.989Z" fill="url(#paint29_linear_263_50)"/>
<path d="M292.023 118.615L293.818 116.048C293.818 116.048 290.701 110.994 284.018 105.51C277.171 99.8926 271.999 98.1445 271.999 98.1445L270.204 100.712C269.84 101.232 269.629 101.867 269.639 102.521C269.68 105.343 268.742 108.477 266.822 111.224C264.902 113.97 262.371 115.797 259.852 116.518C259.268 116.685 258.761 117.077 258.397 117.598L256.671 120.066C256.671 120.066 259.155 124.6 266.472 130.604C273.391 136.281 278.49 137.969 278.49 137.969L280.216 135.502C280.58 134.981 280.791 134.346 280.782 133.693C280.74 130.87 281.678 127.736 283.598 124.99C285.519 122.243 288.049 120.416 290.569 119.695C291.152 119.528 291.659 119.136 292.023 118.615Z" fill="url(#paint30_linear_263_50)"/>
<path opacity="0.24" d="M281.737 91.061L287.881 90.1035L291.913 93.4118L255.234 145.868C249.432 140.981 246.151 135.112 246.951 133.968L258.398 117.598C258.762 117.077 259.269 116.685 259.852 116.518C262.371 115.797 264.902 113.97 266.823 111.223C268.743 108.477 269.681 105.343 269.639 102.521C269.63 101.867 269.841 101.232 270.205 100.711L272.933 96.8094L273.092 96.5821C275.191 93.5808 278.297 91.5971 281.737 91.061Z" fill="#E4F0FF"/>
<path d="M400.839 80.8461L372.664 57.7275L367.676 64.8617L395.85 87.9803C397.147 89.0442 399.315 88.3098 400.692 86.3397C402.07 84.3696 402.136 81.91 400.839 80.8461Z" fill="url(#paint31_linear_263_50)"/>
<path d="M383.737 40.3001L380.154 37.3599L379.637 38.0996C372.289 35.8214 362.59 40.3003 356.025 49.6889C349.461 59.0777 348.108 70.4048 352.122 77.4492L351.605 78.1889L355.188 81.1292C362.61 87.2186 375.017 83.0149 382.9 71.7401C390.783 60.4658 391.158 46.3893 383.737 40.3001Z" fill="url(#paint32_linear_263_50)"/>
<path d="M379.317 68.8C371.433 80.0748 359.026 84.2783 351.605 78.189C344.184 72.0996 344.559 58.0233 352.442 46.7485C360.326 35.4737 372.733 31.2702 380.154 37.3595C387.575 43.4487 387.2 57.5255 379.317 68.8Z" fill="url(#paint33_linear_263_50)"/>
<path d="M377.756 35.3919L374.173 32.4517L373.656 33.1914C366.308 30.9132 356.609 35.3921 350.045 44.7807C343.48 54.1692 342.127 65.4966 346.142 72.541L345.624 73.2807L349.208 76.221C356.629 82.3104 369.036 78.1067 376.919 66.8319C384.803 55.5576 385.178 41.4814 377.756 35.3919Z" fill="url(#paint34_linear_263_50)"/>
<path d="M373.336 63.8923C365.452 75.1671 353.045 79.3706 345.624 73.2813C338.203 67.1921 338.578 53.1156 346.461 41.8408C354.345 30.566 366.752 26.3625 374.173 32.4517C381.594 38.5412 381.219 52.6175 373.336 63.8923Z" fill="url(#paint35_linear_263_50)"/>
<path d="M365.928 52.2002L337.744 29.0732L337.545 29.3574C336.325 29.2118 334.851 29.9936 333.82 31.4681C332.789 32.9425 332.494 34.691 332.954 35.9237L332.755 36.2079L360.94 59.3349C362.237 60.3989 364.405 59.6645 365.782 57.6944C367.16 55.724 367.225 53.2642 365.928 52.2002Z" fill="url(#paint36_linear_263_50)"/>
<path d="M337.644 34.6054C336.266 36.5756 334.098 37.3099 332.802 36.246C331.505 35.182 331.571 32.7222 332.948 30.7524C334.326 28.7822 336.494 28.0479 337.79 29.1118C339.087 30.1758 339.022 32.6353 337.644 34.6054Z" fill="url(#paint37_linear_263_50)"/>
</g>
</g>
<defs>
<linearGradient id="paint0_linear_263_50" x1="95.5275" y1="116.808" x2="32.5651" y2="104.181" gradientUnits="userSpaceOnUse">
<stop stop-color="#639CE5"/>
<stop offset="1" stop-color="#0E468E"/>
</linearGradient>
<linearGradient id="paint1_linear_263_50" x1="47.076" y1="74.4678" x2="95.2277" y2="116.984" gradientUnits="userSpaceOnUse">
<stop stop-color="#3F79C4"/>
<stop offset="1" stop-color="#639CE5"/>
</linearGradient>
<linearGradient id="paint2_linear_263_50" x1="92.9299" y1="127.331" x2="92.6314" y2="127.507" gradientUnits="userSpaceOnUse">
<stop stop-color="#3F79C4"/>
<stop offset="1" stop-color="#639CE5"/>
</linearGradient>
<linearGradient id="paint3_linear_263_50" x1="95.8532" y1="115.188" x2="34.5712" y2="102.898" gradientUnits="userSpaceOnUse">
<stop stop-color="#639CE5"/>
<stop offset="1" stop-color="#BEDBFF"/>
</linearGradient>
<linearGradient id="paint4_linear_263_50" x1="92.2337" y1="103.543" x2="62.1595" y2="97.5118" gradientUnits="userSpaceOnUse">
<stop stop-color="#639CE5"/>
<stop offset="1" stop-color="#0E468E"/>
</linearGradient>
<linearGradient id="paint5_linear_263_50" x1="324.51" y1="73.7548" x2="313.164" y2="79.3915" gradientUnits="userSpaceOnUse">
<stop stop-color="#BEDBFF"/>
<stop offset="1" stop-color="#639CE5"/>
</linearGradient>
<linearGradient id="paint6_linear_263_50" x1="319.322" y1="63.2745" x2="307.976" y2="68.9109" gradientUnits="userSpaceOnUse">
<stop stop-color="#639CE5"/>
<stop offset="1" stop-color="#0E468E"/>
</linearGradient>
<linearGradient id="paint7_linear_263_50" x1="329.709" y1="84.1815" x2="318.363" y2="89.8179" gradientUnits="userSpaceOnUse">
<stop stop-color="#639CE5"/>
<stop offset="1" stop-color="#0E468E"/>
</linearGradient>
<linearGradient id="paint8_linear_263_50" x1="332.288" y1="89.4127" x2="320.942" y2="95.0491" gradientUnits="userSpaceOnUse">
<stop offset="0.01" stop-color="#E4F0FF"/>
<stop offset="1" stop-color="#BEDBFF"/>
</linearGradient>
<linearGradient id="paint9_linear_263_50" x1="361.093" y1="72.1379" x2="408.094" y2="152.761" gradientUnits="userSpaceOnUse">
<stop stop-color="#639CE5"/>
<stop offset="1" stop-color="#BEDBFF"/>
</linearGradient>
<linearGradient id="paint10_linear_263_50" x1="33.5472" y1="65.9574" x2="24.9141" y2="56.1693" gradientUnits="userSpaceOnUse">
<stop stop-color="#BEDBFF"/>
<stop offset="1" stop-color="#639CE5"/>
</linearGradient>
<linearGradient id="paint11_linear_263_50" x1="42.0658" y1="58.4353" x2="33.4332" y2="48.6477" gradientUnits="userSpaceOnUse">
<stop stop-color="#639CE5"/>
<stop offset="1" stop-color="#0E468E"/>
</linearGradient>
<linearGradient id="paint12_linear_263_50" x1="25.0707" y1="73.4258" x2="16.4381" y2="63.6382" gradientUnits="userSpaceOnUse">
<stop stop-color="#639CE5"/>
<stop offset="1" stop-color="#0E468E"/>
</linearGradient>
<linearGradient id="paint13_linear_263_50" x1="20.8183" y1="77.184" x2="12.1856" y2="67.3964" gradientUnits="userSpaceOnUse">
<stop offset="0.01" stop-color="#E4F0FF"/>
<stop offset="1" stop-color="#BEDBFF"/>
</linearGradient>
<linearGradient id="paint14_linear_263_50" x1="-74.6336" y1="40.7392" x2="-4.10699" y2="97.8905" gradientUnits="userSpaceOnUse">
<stop stop-color="#639CE5"/>
<stop offset="1" stop-color="#BEDBFF"/>
</linearGradient>
<linearGradient id="paint15_linear_263_50" x1="95.0516" y1="17.0888" x2="98.3677" y2="28.1717" gradientUnits="userSpaceOnUse">
<stop stop-color="#639CE5"/>
<stop offset="1" stop-color="#0E468E"/>
</linearGradient>
<linearGradient id="paint16_linear_263_50" x1="92.9448" y1="26.0125" x2="95.8491" y2="27.5058" gradientUnits="userSpaceOnUse">
<stop stop-color="#BEDBFF"/>
<stop offset="1" stop-color="#639CE5"/>
</linearGradient>
<linearGradient id="paint17_linear_263_50" x1="93.2518" y1="22.75" x2="98.3234" y2="25.3577" gradientUnits="userSpaceOnUse">
<stop stop-color="#BEDBFF"/>
<stop offset="1" stop-color="#639CE5"/>
</linearGradient>
<linearGradient id="paint18_linear_263_50" x1="79.2275" y1="26.6337" x2="90.9363" y2="65.7651" gradientUnits="userSpaceOnUse">
<stop stop-color="#BEDBFF"/>
<stop offset="1" stop-color="#639CE5"/>
</linearGradient>
<linearGradient id="paint19_linear_263_50" x1="79.9061" y1="29.7962" x2="90.0343" y2="62.657" gradientUnits="userSpaceOnUse">
<stop offset="0.01" stop-color="#E4F0FF"/>
<stop offset="1" stop-color="#BEDBFF"/>
</linearGradient>
<linearGradient id="paint20_linear_263_50" x1="80.0246" y1="29.7602" x2="89.8851" y2="62.7146" gradientUnits="userSpaceOnUse">
<stop stop-color="#0E468E"/>
<stop offset="1" stop-color="#639CE5"/>
</linearGradient>
<linearGradient id="paint21_linear_263_50" x1="89.4183" y1="62.4943" x2="78.6462" y2="33.8324" gradientUnits="userSpaceOnUse">
<stop stop-color="#0E468E"/>
<stop offset="1" stop-color="#639CE5"/>
</linearGradient>
<linearGradient id="paint22_linear_263_50" x1="6.5694" y1="-26.8388" x2="55.4762" y2="18.3079" gradientUnits="userSpaceOnUse">
<stop stop-color="#639CE5"/>
<stop offset="1" stop-color="#3F79C4"/>
</linearGradient>
<linearGradient id="paint23_linear_263_50" x1="298.515" y1="9.45759" x2="318.392" y2="27.8062" gradientUnits="userSpaceOnUse">
<stop stop-color="#639CE5"/>
<stop offset="1" stop-color="#3F79C4"/>
</linearGradient>
<linearGradient id="paint24_linear_263_50" x1="116.582" y1="93.8367" x2="130.559" y2="106.74" gradientUnits="userSpaceOnUse">
<stop stop-color="#BEDBFF"/>
<stop offset="1" stop-color="#639CE5"/>
</linearGradient>
<linearGradient id="paint25_linear_263_50" x1="-33.9871" y1="105.535" x2="14.9197" y2="150.682" gradientUnits="userSpaceOnUse">
<stop stop-color="#BEDBFF"/>
<stop offset="1" stop-color="#639CE5"/>
</linearGradient>
<linearGradient id="paint26_linear_263_50" x1="293.663" y1="88.043" x2="297.097" y2="90.4441" gradientUnits="userSpaceOnUse">
<stop stop-color="#BEDBFF"/>
<stop offset="1" stop-color="#639CE5"/>
</linearGradient>
<linearGradient id="paint27_linear_263_50" x1="287.88" y1="92.9138" x2="297.771" y2="92.9138" gradientUnits="userSpaceOnUse">
<stop stop-color="#639CE5"/>
<stop offset="1" stop-color="#3F79C4"/>
</linearGradient>
<linearGradient id="paint28_linear_263_50" x1="289.297" y1="87.0813" x2="299.507" y2="94.2202" gradientUnits="userSpaceOnUse">
<stop stop-color="#639CE5"/>
<stop offset="1" stop-color="#0E468E"/>
</linearGradient>
<linearGradient id="paint29_linear_263_50" x1="263.014" y1="110.977" x2="286.076" y2="127.102" gradientUnits="userSpaceOnUse">
<stop stop-color="#639CE5"/>
<stop offset="1" stop-color="#3F79C4"/>
</linearGradient>
<linearGradient id="paint30_linear_263_50" x1="264.329" y1="109.097" x2="287.39" y2="125.223" gradientUnits="userSpaceOnUse">
<stop stop-color="#BEDBFF"/>
<stop offset="1" stop-color="#639CE5"/>
</linearGradient>
<linearGradient id="paint31_linear_263_50" x1="382.898" y1="77.386" x2="388.404" y2="70.6765" gradientUnits="userSpaceOnUse">
<stop stop-color="#0E468E"/>
<stop offset="1" stop-color="#639CE5"/>
</linearGradient>
<linearGradient id="paint32_linear_263_50" x1="366.621" y1="38.6878" x2="373.186" y2="82.6072" gradientUnits="userSpaceOnUse">
<stop stop-color="#639CE5"/>
<stop offset="1" stop-color="#0E468E"/>
</linearGradient>
<linearGradient id="paint33_linear_263_50" x1="363.035" y1="35.7428" x2="369.601" y2="79.6671" gradientUnits="userSpaceOnUse">
<stop stop-color="#639CE5"/>
<stop offset="1" stop-color="#BEDBFF"/>
</linearGradient>
<linearGradient id="paint34_linear_263_50" x1="360.641" y1="33.7797" x2="367.206" y2="77.6991" gradientUnits="userSpaceOnUse">
<stop stop-color="#639CE5"/>
<stop offset="1" stop-color="#0E468E"/>
</linearGradient>
<linearGradient id="paint35_linear_263_50" x1="357.054" y1="30.8349" x2="363.62" y2="74.7592" gradientUnits="userSpaceOnUse">
<stop stop-color="#639CE5"/>
<stop offset="1" stop-color="#BEDBFF"/>
</linearGradient>
<linearGradient id="paint36_linear_263_50" x1="347.27" y1="48.1497" x2="352.776" y2="41.4402" gradientUnits="userSpaceOnUse">
<stop stop-color="#0E468E"/>
<stop offset="1" stop-color="#639CE5"/>
</linearGradient>
<linearGradient id="paint37_linear_263_50" x1="332.766" y1="36.2475" x2="338.271" y2="29.538" gradientUnits="userSpaceOnUse">
<stop stop-color="#639CE5"/>
<stop offset="1" stop-color="#0E468E"/>
</linearGradient>
<clipPath id="clip0_263_50">
<rect width="393" height="128" fill="white"/>
</clipPath>
</defs>
</svg>
