<svg width="41" height="40" viewBox="0 0 41 40" fill="none" xmlns="http://www.w3.org/2000/svg">
<path opacity="0.5" d="M32.1666 3.3335H8.83325C7.50852 3.33789 6.2393 3.86609 5.30257 4.80282C4.36584 5.73955 3.83765 7.00877 3.83325 8.3335V23.1002L10.2999 16.6335C11.2528 15.7266 12.5178 15.2208 13.8333 15.2208C15.1487 15.2208 16.4138 15.7266 17.3666 16.6335L22.1516 21.4452L23.6316 19.9652C24.5714 19.0319 25.8421 18.5081 27.1666 18.5081C28.4911 18.5081 29.7618 19.0319 30.7016 19.9652L37.1666 26.4335V8.3335C37.1622 7.00877 36.634 5.73955 35.6973 4.80282C34.7605 3.86609 33.4913 3.33789 32.1666 3.3335Z" fill="#999999"/>
<path d="M17.3666 16.6334C16.4138 15.7265 15.1487 15.2207 13.8333 15.2207C12.5178 15.2207 11.2528 15.7265 10.2999 16.6334L3.83325 23.1001V31.6667C3.83765 32.9915 4.36584 34.2607 5.30257 35.1974C6.2393 36.1341 7.50852 36.6623 8.83325 36.6667H32.1666C32.8389 36.6663 33.5043 36.5303 34.1228 36.2669C34.7414 36.0034 35.3004 35.6179 35.7666 35.1334L17.3666 16.6334Z" fill="#999999"/>
<path opacity="0.25" d="M37.1666 26.4299L30.7016 19.9649C29.7618 19.0316 28.4911 18.5078 27.1666 18.5078C25.8421 18.5078 24.5714 19.0316 23.6316 19.9649L22.1516 21.4449L35.7599 35.1266C36.6633 34.2016 37.1683 32.9599 37.1666 31.6665V26.4299Z" fill="#999999"/>
</svg>
