<svg width="22" height="24" viewBox="0 0 22 24" fill="none" xmlns="http://www.w3.org/2000/svg">
<path d="M18.3126 9.51913V8.75538C18.3126 4.56396 15.0366 1.16663 11.0001 1.16663C6.96357 1.16663 3.68757 4.56396 3.68757 8.75538V9.51913C3.68887 10.4308 3.4287 11.3237 2.9379 12.092L1.73757 13.9608C0.642317 15.667 1.47865 17.9865 3.38423 18.526C8.36355 19.9361 13.6366 19.9361 18.6159 18.526C20.5215 17.9865 21.3578 15.667 20.2626 13.9619L19.0622 12.0931C18.5711 11.3249 18.3105 10.432 18.3115 9.52021L18.3126 9.51913Z" stroke="#3F79C4" stroke-width="2"/>
<path d="M6.125 19.5833C6.83458 21.477 8.74883 22.8333 11 22.8333C13.2512 22.8333 15.1654 21.477 15.875 19.5833M11 5.5V9.83333" stroke="#3F79C4" stroke-width="2" stroke-linecap="round"/>
</svg>
