<svg width="393" height="432" viewBox="0 0 393 432" fill="none" xmlns="http://www.w3.org/2000/svg">
<mask id="path-1-inside-1_116_667" fill="white">
<path d="M0 432H393V40C393 17.9086 375.091 0 353 0H40C17.9086 0 0 17.9086 0 40V432Z"/>
</mask>
<path d="M0 432H393V40C393 17.9086 375.091 0 353 0H40C17.9086 0 0 17.9086 0 40V432Z" fill="white"/>
<path d="M0 432H393H0ZM397 40C397 15.6995 377.301 -4 353 -4H40C15.6995 -4 -4 15.6995 -4 40H4C4 20.1177 20.1177 4 40 4H353C372.882 4 389 20.1177 389 40H397ZM40 -4C15.6995 -4 -4 15.6995 -4 40V432H4V40C4 20.1177 20.1177 4 40 4V-4ZM397 432V40C397 15.6995 377.301 -4 353 -4V4C372.882 4 389 20.1177 389 40V432H397Z" fill="#3F79C4" mask="url(#path-1-inside-1_116_667)"/>
</svg>
