<svg width="17" height="18" viewBox="0 0 17 18" fill="none" xmlns="http://www.w3.org/2000/svg">
<path d="M3.25 0V0.75H0.25V17.25H16.75V0.75H13.75V0H12.25V0.75H4.75V0H3.25ZM1.75 2.25H3.25V3H4.75V2.25H12.25V3H13.75V2.25H15.25V3.75H1.75V2.25ZM1.75 5.25H15.25V15.75H1.75V5.25ZM6.25 6.75V8.25H7.75V6.75H6.25ZM9.25 6.75V8.25H10.75V6.75H9.25ZM12.25 6.75V8.25H13.75V6.75H12.25ZM3.25 9.75V11.25H4.75V9.75H3.25ZM6.25 9.75V11.25H7.75V9.75H6.25ZM9.25 9.75V11.25H10.75V9.75H9.25ZM12.25 9.75V11.25H13.75V9.75H12.25ZM3.25 12.75V14.25H4.75V12.75H3.25ZM6.25 12.75V14.25H7.75V12.75H6.25ZM9.25 12.75V14.25H10.75V12.75H9.25Z" fill="#CDFF49"/>
</svg>
