<svg width="24" height="18" viewBox="0 0 24 18" fill="none" xmlns="http://www.w3.org/2000/svg">
<path d="M23.25 2.27V15.7313C23.25 16.3062 23.0575 16.7867 22.6725 17.1725C22.2875 17.5583 21.8071 17.7508 21.2313 17.75H2.76875C2.19375 17.75 1.71375 17.5575 1.32875 17.1725C0.94375 16.7875 0.750833 16.3067 0.75 15.73V2.27C0.75 1.69417 0.942917 1.21375 1.32875 0.82875C1.71458 0.44375 2.19458 0.250833 2.76875 0.25H21.2313C21.8062 0.25 22.2863 0.442916 22.6713 0.82875C23.0563 1.21458 23.2492 1.695 23.25 2.27ZM2 5.01H22V2.27C22 2.0775 21.92 1.90083 21.76 1.74C21.6 1.57917 21.4237 1.49917 21.2313 1.5H2.76875C2.57708 1.5 2.40083 1.58 2.24 1.74C2.07917 1.9 1.99917 2.07667 2 2.27V5.01ZM2 7.99V15.7313C2 15.9229 2.08 16.0992 2.24 16.26C2.4 16.4208 2.57625 16.5008 2.76875 16.5H21.2313C21.4229 16.5 21.5992 16.42 21.76 16.26C21.9208 16.1 22.0008 15.9237 22 15.7313V7.99H2Z" fill="#121212"/>
</svg>
