<svg width="30" height="31" viewBox="0 0 30 31" fill="none" xmlns="http://www.w3.org/2000/svg">
<rect x="0.5" y="1" width="29" height="29" rx="14.5" stroke="#F54E42"/>
<path d="M15.0002 16.6927L11.397 20.296C11.2385 20.4544 11.0396 20.5336 10.8002 20.5336C10.5608 20.5336 10.3619 20.4544 10.2034 20.296C10.045 20.1375 9.96582 19.9386 9.96582 19.6992C9.96582 19.4598 10.045 19.2609 10.2034 19.1024L13.8068 15.4992L10.2034 11.896C10.045 11.7375 9.96582 11.5386 9.96582 11.2992C9.96582 11.0598 10.045 10.8609 10.2034 10.7024C10.3619 10.544 10.5608 10.4648 10.8002 10.4648C11.0396 10.4648 11.2385 10.544 11.397 10.7024L15.0002 14.3058L18.6034 10.7024C18.7619 10.544 18.9608 10.4648 19.2002 10.4648C19.4396 10.4648 19.6385 10.544 19.797 10.7024C19.9554 10.8609 20.0346 11.0598 20.0346 11.2992C20.0346 11.5386 19.9554 11.7375 19.797 11.896L16.1936 15.4992L19.797 19.1024C19.9554 19.2609 20.0346 19.4598 20.0346 19.6992C20.0346 19.9386 19.9554 20.1375 19.797 20.296C19.6385 20.4544 19.4396 20.5336 19.2002 20.5336C18.9608 20.5336 18.7619 20.4544 18.6034 20.296L15.0002 16.6927Z" fill="#F54E42"/>
</svg>
