<svg width="17" height="18" viewBox="0 0 17 18" fill="none" xmlns="http://www.w3.org/2000/svg">
<path d="M3.9165 5.75817C3.17484 5.75817 2.57484 5.15817 2.57484 4.4165C2.57484 4.06067 2.71619 3.71941 2.9678 3.4678C3.21941 3.21619 3.56067 3.07484 3.9165 3.07484C4.65817 3.07484 5.25817 3.67484 5.25817 4.4165C5.25817 4.77234 5.11682 5.1136 4.8652 5.36521C4.61359 5.61682 4.27234 5.75817 3.9165 5.75817ZM3.9165 0.666504C1.83317 0.666504 0.166504 2.33317 0.166504 4.4165C0.166504 7.22484 3.9165 11.3832 3.9165 11.3832C3.9165 11.3832 7.6665 7.22484 7.6665 4.4165C7.6665 2.33317 5.99984 0.666504 3.9165 0.666504ZM13.0832 5.75817C12.7273 5.75817 12.3861 5.61682 12.1345 5.36521C11.8829 5.1136 11.7415 4.77234 11.7415 4.4165C11.7415 4.24031 11.7762 4.06585 11.8436 3.90307C11.9111 3.74029 12.0099 3.59239 12.1345 3.4678C12.2591 3.34322 12.407 3.24439 12.5697 3.17697C12.7325 3.10954 12.907 3.07484 13.0832 3.07484C13.2594 3.07484 13.4338 3.10954 13.5966 3.17697C13.7594 3.24439 13.9073 3.34322 14.0319 3.4678C14.1565 3.59239 14.2553 3.74029 14.3227 3.90307C14.3901 4.06585 14.4248 4.24031 14.4248 4.4165C14.4248 4.77234 14.2835 5.1136 14.0319 5.36521C13.7803 5.61682 13.439 5.75817 13.0832 5.75817ZM13.0832 0.666504C10.9998 0.666504 9.33317 2.33317 9.33317 4.4165C9.33317 7.22484 13.0832 11.3832 13.0832 11.3832C13.0832 11.3832 16.8332 7.22484 16.8332 4.4165C16.8332 2.33317 15.1665 0.666504 13.0832 0.666504ZM13.0832 12.3332C12.0248 12.3332 11.0832 12.9998 10.7332 13.9998H6.2665C6.04569 13.3761 5.58664 12.8654 4.98995 12.5796C4.39325 12.2937 3.70758 12.2561 3.08317 12.4748C2.77282 12.5836 2.48695 12.7524 2.2419 12.9717C1.99684 13.191 1.79741 13.4565 1.65501 13.7529C1.51261 14.0493 1.43002 14.3709 1.41197 14.6992C1.39393 15.0276 1.44077 15.3563 1.54984 15.6665C1.77364 16.2918 2.23579 16.8032 2.83535 17.0889C3.43491 17.3746 4.12317 17.4115 4.74984 17.1915C5.45817 16.9415 5.99984 16.3748 6.2665 15.6665H10.7415C11.1998 16.9665 12.6332 17.6498 13.9165 17.1915C14.2278 17.0839 14.5147 16.9158 14.7609 16.6969C15.007 16.4781 15.2075 16.2127 15.3507 15.9161C15.494 15.6195 15.5772 15.2976 15.5957 14.9687C15.6141 14.6398 15.5674 14.3106 15.4582 13.9998C15.0998 12.9998 14.1498 12.3332 13.0832 12.3332ZM13.0832 16.0832C12.7516 16.0832 12.4337 15.9515 12.1993 15.7171C11.9649 15.4826 11.8332 15.1647 11.8332 14.8332C11.8332 14.5017 11.9649 14.1837 12.1993 13.9493C12.4337 13.7149 12.7516 13.5832 13.0832 13.5832C13.4147 13.5832 13.7326 13.7149 13.9671 13.9493C14.2015 14.1837 14.3332 14.5017 14.3332 14.8332C14.3332 15.1647 14.2015 15.4826 13.9671 15.7171C13.7326 15.9515 13.4147 16.0832 13.0832 16.0832Z" fill="#3F79C4"/>
</svg>
