<svg width="30" height="31" viewBox="0 0 30 31" fill="none" xmlns="http://www.w3.org/2000/svg">
<rect x="0.5" y="1" width="29" height="29" rx="14.5" stroke="#3F79C4"/>
<g clip-path="url(#clip0_620_5538)">
<path d="M12.5502 19.15L21.0252 10.675C21.2252 10.475 21.4585 10.375 21.7252 10.375C21.9919 10.375 22.2252 10.475 22.4252 10.675C22.6252 10.875 22.7252 11.1125 22.7252 11.3875C22.7252 11.6625 22.6252 11.9 22.4252 12.1L13.2502 21.3C13.0502 21.5 12.8169 21.6 12.5502 21.6C12.2835 21.6 12.0502 21.5 11.8502 21.3L7.55021 17C7.35021 16.8 7.25437 16.5625 7.26271 16.2875C7.27104 16.0125 7.37521 15.775 7.57521 15.575C7.77521 15.375 8.01271 15.275 8.28771 15.275C8.56271 15.275 8.80021 15.375 9.00021 15.575L12.5502 19.15Z" fill="#3F79C4"/>
</g>
<defs>
<clipPath id="clip0_620_5538">
<rect width="18" height="18" fill="white" transform="translate(6 6.5)"/>
</clipPath>
</defs>
</svg>
