<svg width="36" height="39" viewBox="0 0 36 39" fill="none" xmlns="http://www.w3.org/2000/svg">
<path d="M26.0415 7.625C26.9698 7.625 27.86 7.25625 28.5164 6.59987C29.1728 5.9435 29.5415 5.05326 29.5415 4.125C29.5415 3.19674 29.1728 2.3065 28.5164 1.65013C27.86 0.993749 26.9698 0.625 26.0415 0.625C25.1132 0.625 24.223 0.993749 23.5666 1.65013C22.9103 2.3065 22.5415 3.19674 22.5415 4.125C22.5415 5.05326 22.9103 5.9435 23.5666 6.59987C24.223 7.25625 25.1132 7.625 26.0415 7.625ZM19.7415 31.95L21.4915 24.25L25.1665 27.75V38.25H28.6665V25.125L24.9915 21.625L26.0415 16.375C27.2406 17.749 28.72 18.8503 30.3802 19.6049C32.0404 20.3596 33.8429 20.75 35.6665 20.75V17.25C32.5865 17.3025 29.7165 15.6925 28.1415 13.05L26.3915 10.25C25.7615 9.2 24.6415 8.5 23.4165 8.5C22.8915 8.5 22.5415 8.675 22.0165 8.675L12.9165 12.525V20.75H16.4165V14.8L19.5665 13.575L16.7665 27.75L8.1915 26L7.4915 29.5L19.7415 31.95ZM4.1665 13.75C3.70237 13.75 3.25726 13.5656 2.92907 13.2374C2.60088 12.9092 2.4165 12.4641 2.4165 12C2.4165 11.5359 2.60088 11.0908 2.92907 10.7626C3.25726 10.4344 3.70237 10.25 4.1665 10.25H9.4165V13.75H4.1665ZM5.9165 6.75C5.45237 6.75 5.00726 6.56563 4.67907 6.23744C4.35088 5.90925 4.1665 5.46413 4.1665 5C4.1665 4.53587 4.35088 4.09075 4.67907 3.76256C5.00726 3.43437 5.45237 3.25 5.9165 3.25H14.6665V6.75H5.9165ZM2.4165 20.75C1.95238 20.75 1.50726 20.5656 1.17907 20.2374C0.850878 19.9092 0.666504 19.4641 0.666504 19C0.666504 18.5359 0.850878 18.0908 1.17907 17.7626C1.50726 17.4344 1.95238 17.25 2.4165 17.25H9.4165V20.75H2.4165Z" fill="#639CE5"/>
</svg>
