<svg width="19" height="14" viewBox="0 0 19 14" fill="none" xmlns="http://www.w3.org/2000/svg">
<path d="M0.333496 13.6668V11.3335C0.333496 10.8613 0.455024 10.4272 0.698079 10.0314C0.941135 9.63558 1.26405 9.3335 1.66683 9.12516C2.52794 8.69461 3.40294 8.37169 4.29183 8.15641C5.18072 7.94113 6.0835 7.8335 7.00016 7.8335C7.91683 7.8335 8.81961 7.94113 9.7085 8.15641C10.5974 8.37169 11.4724 8.69461 12.3335 9.12516C12.7363 9.3335 13.0592 9.63558 13.3022 10.0314C13.5453 10.4272 13.6668 10.8613 13.6668 11.3335V13.6668H0.333496ZM15.3335 13.6668V11.1668C15.3335 10.5557 15.1634 9.96891 14.8231 9.40641C14.4828 8.84391 14.0002 8.36127 13.3752 7.9585C14.0835 8.04183 14.7502 8.18419 15.3752 8.38558C16.0002 8.58697 16.5835 8.8335 17.1252 9.12516C17.6252 9.40294 18.0071 9.71197 18.271 10.0522C18.5349 10.3925 18.6668 10.7641 18.6668 11.1668V13.6668H15.3335ZM7.00016 7.00016C6.0835 7.00016 5.29877 6.67377 4.646 6.021C3.99322 5.36822 3.66683 4.5835 3.66683 3.66683C3.66683 2.75016 3.99322 1.96544 4.646 1.31266C5.29877 0.659885 6.0835 0.333496 7.00016 0.333496C7.91683 0.333496 8.70155 0.659885 9.35433 1.31266C10.0071 1.96544 10.3335 2.75016 10.3335 3.66683C10.3335 4.5835 10.0071 5.36822 9.35433 6.021C8.70155 6.67377 7.91683 7.00016 7.00016 7.00016ZM15.3335 3.66683C15.3335 4.5835 15.0071 5.36822 14.3543 6.021C13.7016 6.67377 12.9168 7.00016 12.0002 7.00016C11.8474 7.00016 11.6529 6.9828 11.4168 6.94808C11.1807 6.91336 10.9863 6.87516 10.8335 6.8335C11.2085 6.38905 11.4967 5.896 11.6981 5.35433C11.8995 4.81266 12.0002 4.25016 12.0002 3.66683C12.0002 3.0835 11.8995 2.521 11.6981 1.97933C11.4967 1.43766 11.2085 0.944607 10.8335 0.500163C11.0279 0.430718 11.2224 0.385579 11.4168 0.364746C11.6113 0.343913 11.8057 0.333496 12.0002 0.333496C12.9168 0.333496 13.7016 0.659885 14.3543 1.31266C15.0071 1.96544 15.3335 2.75016 15.3335 3.66683Z" fill="#3F79C4"/>
</svg>
