<svg width="24" height="36" viewBox="0 0 24 36" fill="none" xmlns="http://www.w3.org/2000/svg">
<path d="M11.9996 1C17.796 1 22.4955 5.69879 22.4957 11.4951C22.4957 17.2916 17.7961 21.9912 11.9996 21.9912C6.20327 21.991 1.50449 17.2915 1.50449 11.4951C1.5047 5.69892 6.20341 1.00022 11.9996 1Z" stroke="#35B555" stroke-width="2"/>
<path d="M11.049 5.30547C11.3483 4.38416 12.6517 4.38416 12.9511 5.30547L13.8224 7.98722C13.9563 8.39924 14.3402 8.6782 14.7735 8.6782H17.5932C18.562 8.6782 18.9647 9.91782 18.181 10.4872L15.8998 12.1446C15.5493 12.3993 15.4026 12.8506 15.5365 13.2627L16.4079 15.9444C16.7072 16.8657 15.6527 17.6319 14.869 17.0625L12.5878 15.405C12.2373 15.1504 11.7627 15.1504 11.4122 15.405L9.13099 17.0625C8.34727 17.6319 7.29279 16.8657 7.59215 15.9444L8.4635 13.2627C8.59737 12.8506 8.45072 12.3993 8.10023 12.1446L5.81899 10.4872C5.03528 9.91782 5.43806 8.6782 6.40678 8.6782H9.22654C9.65977 8.6782 10.0437 8.39924 10.1776 7.98722L11.049 5.30547Z" fill="#35B555"/>
<path d="M17.5496 36L19.9279 21.4055C19.9279 21.4055 16.3604 24.6553 11.6036 24.5767C6.84684 24.4981 3.67566 21.4055 3.67566 21.4055L5.65764 36L11.6036 29.3335L17.5496 36Z" fill="#35B555"/>
</svg>
