<svg width="23" height="23" viewBox="0 0 23 23" fill="none" xmlns="http://www.w3.org/2000/svg">
<path d="M11.5192 2.7887C8.34708 2.7887 5.76916 5.36661 5.76916 8.5387V11.3083C5.76916 11.8929 5.51999 12.7841 5.22291 13.2824L4.12083 15.1129C3.44041 16.2437 3.90999 17.4991 5.15583 17.9208C9.28624 19.3008 13.7425 19.3008 17.8729 17.9208C19.0325 17.5374 19.5404 16.167 18.9079 15.1129L17.8058 13.2824C17.5183 12.7841 17.2692 11.8929 17.2692 11.3083V8.5387C17.2692 5.3762 14.6817 2.7887 11.5192 2.7887Z" stroke="#112565" stroke-width="1.5" stroke-miterlimit="10" stroke-linecap="round"/>
<path d="M13.2921 3.06663C12.995 2.98038 12.6883 2.9133 12.3721 2.87496C11.4521 2.75996 10.5704 2.82705 9.74625 3.06663C10.0242 2.35746 10.7142 1.85913 11.5192 1.85913C12.3242 1.85913 13.0142 2.35746 13.2921 3.06663Z" stroke="#112565" stroke-width="1.5" stroke-miterlimit="10" stroke-linecap="round" stroke-linejoin="round"/>
<path d="M14.3942 18.2659C14.3942 19.8471 13.1004 21.1409 11.5192 21.1409C10.7333 21.1409 10.005 20.815 9.4875 20.2975C8.97 19.78 8.64417 19.0517 8.64417 18.2659" stroke="#112565" stroke-width="1.5" stroke-miterlimit="10"/>
</svg>
