<svg width="32" height="30" viewBox="0 0 32 30" fill="none" xmlns="http://www.w3.org/2000/svg">
<path d="M20.4165 27.25C22.5165 20.8135 24.837 18.4912 30.9165 16.75C24.837 15.0087 22.5165 12.6865 20.4165 6.25C18.3165 12.6865 15.996 15.0087 9.9165 16.75C15.996 18.4912 18.3165 20.8135 20.4165 27.25ZM6.4165 11.5C7.4665 8.28 8.62675 7.11975 11.6665 6.25C8.62675 5.38025 7.4665 4.22 6.4165 1C5.3665 4.22 4.20625 5.38025 1.1665 6.25C4.20625 7.11975 5.3665 8.28 6.4165 11.5ZM9.0415 29C9.5665 27.39 10.1458 26.8107 11.6665 26.375C10.1458 25.9393 9.5665 25.36 9.0415 23.75C8.5165 25.36 7.93725 25.9393 6.4165 26.375C7.93725 26.8107 8.5165 27.39 9.0415 29Z" fill="#639CE5" stroke="#639CE5" stroke-width="2" stroke-linejoin="round"/>
</svg>
