<svg width="28" height="26" viewBox="0 0 28 26" fill="none" xmlns="http://www.w3.org/2000/svg">
<path d="M20.25 11.5063C20.25 11.0738 20.25 10.8575 20.315 10.665C20.5038 10.105 21.0025 9.88878 21.5025 9.66128C22.0625 9.40503 22.3425 9.27753 22.6212 9.25503C22.9362 9.23003 23.2525 9.29753 23.5225 9.44878C23.88 9.64878 24.13 10.0313 24.385 10.3413C25.5638 11.7738 26.1538 12.49 26.3688 13.2788C26.5438 13.9163 26.5438 14.5838 26.3688 15.22C26.055 16.3725 25.0613 17.3375 24.325 18.2325C23.9488 18.6888 23.76 18.9175 23.5225 19.0513C23.2479 19.2036 22.9342 19.271 22.6212 19.245C22.3425 19.2225 22.0625 19.095 21.5012 18.8388C21.0012 18.6113 20.5038 18.395 20.315 17.835C20.25 17.6425 20.25 17.4263 20.25 16.9938V11.5063ZM7.75 11.5063C7.75 10.9613 7.735 10.4725 7.295 10.09C7.135 9.95128 6.9225 9.85503 6.49875 9.66128C5.9375 9.40628 5.6575 9.27753 5.37875 9.25503C4.545 9.18753 4.09625 9.75753 3.61625 10.3425C2.43625 11.7738 1.84625 12.49 1.63 13.28C1.45601 13.9154 1.45601 14.5859 1.63 15.2213C1.945 16.3725 2.94 17.3388 3.675 18.2325C4.13875 18.795 4.5825 19.3088 5.37875 19.245C5.6575 19.2225 5.9375 19.095 6.49875 18.8388C6.92375 18.6463 7.135 18.5488 7.295 18.41C7.735 18.0275 7.75 17.5388 7.75 16.995V11.5063Z" stroke="#121212" stroke-width="1.875" stroke-linecap="round" stroke-linejoin="round"/>
<path d="M5.25 9.25C5.25 5.1075 9.1675 1.75 14 1.75C18.8325 1.75 22.75 5.1075 22.75 9.25M22.75 19.25V20.25C22.75 22.4587 20.5125 24.25 17.75 24.25H15.25" stroke="#121212" stroke-width="1.875" stroke-linecap="round" stroke-linejoin="round"/>
</svg>
