<svg width="46" height="46" viewBox="0 0 46 46" fill="none" xmlns="http://www.w3.org/2000/svg">
<rect width="46" height="46" rx="23" fill="#3F79C4"/>
<path d="M34.5063 17.7062C34.1947 17.0393 33.6894 16.4817 33.0563 16.1062L24.9688 11.1062C24.3756 10.7387 23.6916 10.544 22.9938 10.544C22.2959 10.544 21.612 10.7387 21.0188 11.1062L12.9313 16.1062C12.3182 16.4967 11.8318 17.0569 11.5313 17.7187C11.2191 18.3806 11.1145 19.1214 11.2313 19.8437L13.3313 32.3437C13.4659 33.2154 13.9096 34.0096 14.5813 34.5812C15.2476 35.1393 16.0871 35.4486 16.9563 35.4562H28.9813C29.8676 35.4603 30.7267 35.1503 31.4063 34.5812C32.0815 34.0125 32.526 33.2169 32.6563 32.3437L34.7563 19.8437C34.8836 19.1221 34.7967 18.379 34.5063 17.7062ZM27.1813 29.8312H18.8188C18.4872 29.8312 18.1693 29.6995 17.9349 29.4651C17.7005 29.2307 17.5688 28.9128 17.5688 28.5812C17.5688 28.2497 17.7005 27.9318 17.9349 27.6974C18.1693 27.4629 18.4872 27.3312 18.8188 27.3312H27.1813C27.5128 27.3312 27.8307 27.4629 28.0652 27.6974C28.2996 27.9318 28.4313 28.2497 28.4313 28.5812C28.4313 28.9128 28.2996 29.2307 28.0652 29.4651C27.8307 29.6995 27.5128 29.8312 27.1813 29.8312Z" fill="#FFFFFF"/>
</svg>
