<svg width="24" height="26" viewBox="0 0 24 26" fill="none" xmlns="http://www.w3.org/2000/svg">
<path d="M23.5063 7.70624C23.1947 7.03931 22.6894 6.48174 22.0563 6.10624L13.9688 1.10624C13.3756 0.738717 12.6916 0.544006 11.9938 0.544006C11.2959 0.544006 10.612 0.738717 10.0188 1.10624L1.93127 6.10624C1.31819 6.4967 0.8318 7.05692 0.53127 7.71874C0.219083 8.38055 0.114499 9.12136 0.23127 9.84374L2.33127 22.3437C2.46593 23.2154 2.9096 24.0096 3.58127 24.5812C4.24761 25.1393 5.08712 25.4486 5.95627 25.4562H17.9813C18.8676 25.4603 19.7267 25.1503 20.4063 24.5812C21.0815 24.0125 21.526 23.2169 21.6563 22.3437L23.7563 9.84374C23.8836 9.12212 23.7967 8.37901 23.5063 7.70624ZM16.1813 19.8312H7.81877C7.48725 19.8312 7.16931 19.6995 6.93489 19.4651C6.70047 19.2307 6.56877 18.9128 6.56877 18.5812C6.56877 18.2497 6.70047 17.9318 6.93489 17.6974C7.16931 17.4629 7.48725 17.3312 7.81877 17.3312H16.1813C16.5128 17.3312 16.8307 17.4629 17.0652 17.6974C17.2996 17.9318 17.4313 18.2497 17.4313 18.5812C17.4313 18.9128 17.2996 19.2307 17.0652 19.4651C16.8307 19.6995 16.5128 19.8312 16.1813 19.8312Z" fill="#3F79C4"/>
</svg>
