<svg width="24" height="29" viewBox="0 0 24 29" fill="none" xmlns="http://www.w3.org/2000/svg">
<path d="M9.64375 26.2638C10.4012 26.8888 11.1912 27.46 12 28.0175C12.8105 27.4674 13.5967 26.8823 14.3563 26.2638C15.6225 25.224 16.8142 24.0967 17.9225 22.89C20.4775 20.0963 23.25 16.0463 23.25 11.5C23.25 10.0226 22.959 8.55973 22.3936 7.19481C21.8283 5.8299 20.9996 4.58971 19.955 3.54505C18.9103 2.50039 17.6701 1.67172 16.3052 1.10636C14.9403 0.54099 13.4774 0.25 12 0.25C10.5226 0.25 9.05972 0.54099 7.69481 1.10636C6.3299 1.67172 5.08971 2.50039 4.04505 3.54505C3.00039 4.58971 2.17172 5.8299 1.60636 7.19481C1.04099 8.55973 0.75 10.0226 0.75 11.5C0.75 16.0463 3.5225 20.095 6.0775 22.89C7.18578 24.0971 8.37746 25.2236 9.64375 26.2638ZM12 15.5625C10.9226 15.5625 9.88925 15.1345 9.12738 14.3726C8.36551 13.6108 7.9375 12.5774 7.9375 11.5C7.9375 10.4226 8.36551 9.38925 9.12738 8.62738C9.88925 7.86551 10.9226 7.4375 12 7.4375C13.0774 7.4375 14.1108 7.86551 14.8726 8.62738C15.6345 9.38925 16.0625 10.4226 16.0625 11.5C16.0625 12.5774 15.6345 13.6108 14.8726 14.3726C14.1108 15.1345 13.0774 15.5625 12 15.5625Z" fill="#3F79C4"/>
</svg>
