<svg width="22" height="22" viewBox="0 0 22 22" fill="none" xmlns="http://www.w3.org/2000/svg">
<path fill-rule="evenodd" clip-rule="evenodd" d="M15.9875 5.77878C16.0763 5.69336 16.181 5.62628 16.2957 5.58137C16.4104 5.53645 16.5329 5.51459 16.6561 5.51703C16.7792 5.51947 16.9007 5.54616 17.0136 5.59557C17.1264 5.64499 17.2284 5.71617 17.3137 5.80503L21.6762 10.3513C21.8436 10.5258 21.937 10.7583 21.937 11C21.937 11.2418 21.8436 11.4742 21.6762 11.6488L17.3137 16.195C17.2285 16.2838 17.1265 16.355 17.0138 16.4044C16.901 16.4538 16.7796 16.4805 16.6565 16.483C16.5334 16.4855 16.411 16.4637 16.2963 16.4189C16.1817 16.3741 16.0769 16.3072 15.9881 16.2219C15.8993 16.1366 15.8282 16.0347 15.7788 15.9219C15.7294 15.8092 15.7026 15.6878 15.7001 15.5647C15.6976 15.4416 15.7194 15.3192 15.7642 15.2045C15.809 15.0898 15.876 14.9851 15.9612 14.8963L18.8 11.9375H10.0912C9.84261 11.9375 9.60415 11.8388 9.42834 11.6629C9.25252 11.4871 9.15375 11.2487 9.15375 11C9.15375 10.7514 9.25252 10.5129 9.42834 10.3371C9.60415 10.1613 9.84261 10.0625 10.0912 10.0625H18.8012L15.9612 7.10378C15.7893 6.92438 15.6956 6.68404 15.7007 6.43559C15.7059 6.18713 15.8095 5.95089 15.9887 5.77878" fill="#F54E42"/>
<path fill-rule="evenodd" clip-rule="evenodd" d="M0.0625 1C0.0625 0.75136 0.161272 0.512903 0.337087 0.337087C0.512903 0.161272 0.75136 0.0625 1 0.0625H12.8188C13.0674 0.0625 13.3058 0.161272 13.4817 0.337087C13.6575 0.512903 13.7563 0.75136 13.7563 1V4.75C13.7562 4.99864 13.6575 5.2371 13.4817 5.41291C13.3058 5.58873 13.0674 5.6875 12.8188 5.6875C12.5701 5.6875 12.3317 5.58873 12.1558 5.41291C11.98 5.2371 11.8813 4.99864 11.8813 4.75V1.9375H1.9375V20.0625H11.88V17.25C11.88 17.0014 11.9788 16.7629 12.1546 16.5871C12.3304 16.4113 12.5689 16.3125 12.8175 16.3125C13.0661 16.3125 13.3046 16.4113 13.4804 16.5871C13.6562 16.7629 13.755 17.0014 13.755 17.25V21C13.755 21.2486 13.6562 21.4871 13.4804 21.6629C13.3046 21.8387 13.0661 21.9375 12.8175 21.9375H1C0.75136 21.9375 0.512903 21.8387 0.337087 21.6629C0.161272 21.4871 0.0625 21.2486 0.0625 21V1Z" fill="#F54E42"/>
</svg>
