<svg width="43" height="41" viewBox="0 0 43 41" fill="none" xmlns="http://www.w3.org/2000/svg">
<path fill-rule="evenodd" clip-rule="evenodd" d="M22.3933 0.425703C23.9012 0.425703 25.3474 1.02474 26.4137 2.09102C27.48 3.15731 28.079 4.6035 28.079 6.11145C28.079 7.61941 27.48 9.0656 26.4137 10.1319C25.3474 11.1982 23.9012 11.7972 22.3933 11.7972C20.8853 11.7972 19.4391 11.1982 18.3728 10.1319C17.3065 9.0656 16.7075 7.61941 16.7075 6.11145C16.7075 4.6035 17.3065 3.15731 18.3728 2.09102C19.4391 1.02474 20.8853 0.425703 22.3933 0.425703ZM13.5943 16.6132L15.0433 17.3395L10.1555 27.6557C9.97525 28.018 9.431 28.3802 9.0705 28.1982L4.1705 26.9312C2.72325 26.569 1.27425 27.4737 0.91375 28.9227C0.551502 30.37 1.45625 31.819 2.9035 32.1812L7.8035 33.4482C8.346 33.6285 8.8885 33.6285 9.431 33.6285C12.147 33.6285 14.499 32.001 15.4038 29.4652L15.766 28.3802L20.1113 31.2765C20.205 31.2823 20.2933 31.3221 20.3597 31.3885C20.4261 31.4549 20.466 31.5432 20.4718 31.637L23.0058 38.945C23.5483 40.03 24.4548 40.5742 25.5398 40.5742C25.902 40.5742 26.2643 40.5742 26.6248 40.394C28.0738 39.6695 28.618 38.2222 28.0738 36.7732L25.5398 29.4652C24.9973 28.3802 24.2728 27.4755 23.1878 26.751L17.9378 23.3122L19.9293 19.6915L22.4633 20.9585C24.817 22.0435 27.7133 21.683 29.703 19.6915L33.0403 16.321C34.1253 15.236 34.1253 13.605 33.0403 12.52C31.9553 11.435 30.326 11.435 29.2393 12.52L25.902 15.8905C25.5398 16.2527 25.1793 16.2527 24.817 16.0725L19.9293 13.5385L15.948 11.547C14.3188 10.8225 12.6895 10.6422 11.0603 11.1847C9.43275 11.7272 8.164 12.9942 7.44125 14.4432L4.90725 19.2505C4.36475 20.5175 4.90725 22.1467 6.17425 22.8712C7.527 23.5467 8.997 23.1127 9.79325 21.7845L12.3273 16.9772C12.6895 16.615 13.232 16.433 13.5943 16.6132ZM29.0888 31.2765L28.3013 30.7515L27.6065 28.7512C27.5762 28.6625 27.5394 28.575 27.4963 28.4887C26.8103 27.115 25.8495 25.8987 24.4005 24.9327L24.3865 24.9222L21.366 22.9447L21.401 22.8747L21.485 22.9167L21.52 22.9342L21.5463 22.9465C23.3194 23.7656 25.3166 23.9641 27.2163 23.51L32.1653 26.7527C33.252 27.4772 33.9765 28.3802 34.519 29.467L37.053 36.775C37.5955 38.224 37.053 39.6712 35.6058 40.3957C35.2435 40.576 34.8813 40.576 34.519 40.576C33.434 40.576 32.5275 40.0335 31.985 38.9485L29.451 31.6387C29.451 31.4585 29.2708 31.2765 29.0888 31.2765ZM38.2185 12.52L36.031 14.7285C35.9593 15.8607 35.478 16.9737 34.5908 17.8627L31.5003 20.9847C33.8435 22.0382 36.7083 21.6672 38.6823 19.6915L42.0195 16.321C43.1045 15.236 43.1045 13.605 42.0195 12.52C40.9328 11.435 39.3035 11.435 38.2185 12.52ZM28.534 1.18345C29.6579 2.57978 30.2693 4.31904 30.2665 6.11145C30.2665 7.4782 29.9183 8.76445 29.304 9.8862C31.0225 9.1687 33.0315 9.4977 34.484 10.8715C35.7365 10.0675 36.6239 8.80438 36.9555 7.35342C37.2871 5.90246 37.0365 4.37933 36.2576 3.11106C35.4787 1.84278 34.2335 0.930506 32.7894 0.570104C31.3453 0.209701 29.8175 0.429912 28.534 1.18345Z" fill="#639CE5"/>
</svg>
