<svg width="28" height="26" viewBox="0 0 28 26" fill="none" xmlns="http://www.w3.org/2000/svg">
<path d="M4.11875 23.0688L8.0825 21.7469L8.77625 22.0938C10.37 22.8888 12.1419 23.3125 14 23.3125C20.2062 23.3125 25.25 18.4263 25.25 13C25.25 7.57375 20.2062 2.6875 14 2.6875C7.79375 2.6875 2.75 7.57375 2.75 13C2.75 15.025 3.48125 17.08 4.82563 18.8369L5.4725 19.6806L4.11688 23.0669L4.11875 23.0688ZM2.79313 25.4875C2.62345 25.5443 2.44105 25.5515 2.26747 25.508C2.09389 25.4645 1.93638 25.3722 1.81354 25.2421C1.69071 25.112 1.60769 24.9494 1.57428 24.7736C1.54087 24.5978 1.55847 24.4161 1.625 24.25L3.335 19.975C1.775 17.9312 0.875 15.4862 0.875 13C0.875 6.78625 6.5 0.8125 14 0.8125C21.5 0.8125 27.125 6.78625 27.125 13C27.125 19.2137 21.5 25.1875 14 25.1875C11.8966 25.1934 9.82082 24.708 7.93813 23.77L2.79313 25.4856V25.4875Z" fill="#3F79C4"/>
<path d="M14 14.5C13.803 14.5 13.608 14.4612 13.426 14.3858C13.244 14.3104 13.0786 14.1999 12.9393 14.0607C12.8001 13.9214 12.6896 13.756 12.6142 13.574C12.5388 13.392 12.5 13.197 12.5 13C12.5 12.803 12.5388 12.608 12.6142 12.426C12.6896 12.244 12.8001 12.0786 12.9393 11.9393C13.0786 11.8001 13.244 11.6896 13.426 11.6142C13.608 11.5388 13.803 11.5 14 11.5C14.3978 11.5 14.7794 11.658 15.0607 11.9393C15.342 12.2206 15.5 12.6022 15.5 13C15.5 13.3978 15.342 13.7794 15.0607 14.0607C14.7794 14.342 14.3978 14.5 14 14.5ZM19.625 14.5C19.428 14.5 19.233 14.4612 19.051 14.3858C18.869 14.3104 18.7036 14.1999 18.5643 14.0607C18.4251 13.9214 18.3146 13.756 18.2392 13.574C18.1638 13.392 18.125 13.197 18.125 13C18.125 12.803 18.1638 12.608 18.2392 12.426C18.3146 12.244 18.4251 12.0786 18.5643 11.9393C18.7036 11.8001 18.869 11.6896 19.051 11.6142C19.233 11.5388 19.428 11.5 19.625 11.5C20.0228 11.5 20.4044 11.658 20.6857 11.9393C20.967 12.2206 21.125 12.6022 21.125 13C21.125 13.3978 20.967 13.7794 20.6857 14.0607C20.4044 14.342 20.0228 14.5 19.625 14.5ZM8.375 14.5C8.17802 14.5 7.98296 14.4612 7.80098 14.3858C7.61899 14.3104 7.45363 14.1999 7.31434 14.0607C7.17505 13.9214 7.06456 13.756 6.98918 13.574C6.9138 13.392 6.875 13.197 6.875 13C6.875 12.803 6.9138 12.608 6.98918 12.426C7.06456 12.244 7.17505 12.0786 7.31434 11.9393C7.45363 11.8001 7.61899 11.6896 7.80098 11.6142C7.98296 11.5388 8.17802 11.5 8.375 11.5C8.77283 11.5 9.15436 11.658 9.43566 11.9393C9.71696 12.2206 9.875 12.6022 9.875 13C9.875 13.3978 9.71696 13.7794 9.43566 14.0607C9.15436 14.342 8.77283 14.5 8.375 14.5Z" fill="#3F79C4"/>
</svg>
