<svg width="46" height="46" viewBox="0 0 46 46" fill="none" xmlns="http://www.w3.org/2000/svg">
<rect width="46" height="46" rx="23" fill="#3F79C4"/>
<path d="M13.1188 33.0688L17.0825 31.7469L17.7763 32.0938C19.37 32.8888 21.1419 33.3125 23 33.3125C29.2062 33.3125 34.25 28.4263 34.25 23C34.25 17.5738 29.2062 12.6875 23 12.6875C16.7938 12.6875 11.75 17.5738 11.75 23C11.75 25.025 12.4813 27.08 13.8256 28.8369L14.4725 29.6806L13.1169 33.0669L13.1188 33.0688ZM11.7931 35.4875C11.6235 35.5443 11.441 35.5515 11.2675 35.508C11.0939 35.4645 10.9364 35.3722 10.8135 35.2421C10.6907 35.112 10.6077 34.9494 10.5743 34.7736C10.5409 34.5978 10.5585 34.4161 10.625 34.25L12.335 29.975C10.775 27.9312 9.875 25.4862 9.875 23C9.875 16.7863 15.5 10.8125 23 10.8125C30.5 10.8125 36.125 16.7863 36.125 23C36.125 29.2137 30.5 35.1875 23 35.1875C20.8966 35.1934 18.8208 34.708 16.9381 33.77L11.7931 35.4856V35.4875Z" fill="#FFFFFF"/>
<path d="M23 24.5C22.803 24.5 22.608 24.4612 22.426 24.3858C22.244 24.3104 22.0786 24.1999 21.9393 24.0607C21.8001 23.9214 21.6896 23.756 21.6142 23.574C21.5388 23.392 21.5 23.197 21.5 23C21.5 22.803 21.5388 22.608 21.6142 22.426C21.6896 22.244 21.8001 22.0786 21.9393 21.9393C22.0786 21.8001 22.244 21.6896 22.426 21.6142C22.608 21.5388 22.803 21.5 23 21.5C23.3978 21.5 23.7794 21.658 24.0607 21.9393C24.342 22.2206 24.5 22.6022 24.5 23C24.5 23.3978 24.342 23.7794 24.0607 24.0607C23.7794 24.342 23.3978 24.5 23 24.5ZM28.625 24.5C28.428 24.5 28.233 24.4612 28.051 24.3858C27.869 24.3104 27.7036 24.1999 27.5643 24.0607C27.4251 23.9214 27.3146 23.756 27.2392 23.574C27.1638 23.392 27.125 23.197 27.125 23C27.125 22.803 27.1638 22.608 27.2392 22.426C27.3146 22.244 27.4251 22.0786 27.5643 21.9393C27.7036 21.8001 27.869 21.6896 28.051 21.6142C28.233 21.5388 28.428 21.5 28.625 21.5C29.0228 21.5 29.4044 21.658 29.6857 21.9393C29.967 22.2206 30.125 22.6022 30.125 23C30.125 23.3978 29.967 23.7794 29.6857 24.0607C29.4044 24.342 29.0228 24.5 28.625 24.5ZM17.375 24.5C17.178 24.5 16.983 24.4612 16.801 24.3858C16.619 24.3104 16.4536 24.1999 16.3143 24.0607C16.1751 23.9214 16.0646 23.756 15.9892 23.574C15.9138 23.392 15.875 23.197 15.875 23C15.875 22.803 15.9138 22.608 15.9892 22.426C16.0646 22.244 16.1751 22.0786 16.3143 21.9393C16.4536 21.8001 16.619 21.6896 16.801 21.6142C16.983 21.5388 17.178 21.5 17.375 21.5C17.7728 21.5 18.1544 21.658 18.4357 21.9393C18.717 22.2206 18.875 22.6022 18.875 23C18.875 23.3978 18.717 23.7794 18.4357 24.0607C18.1544 24.342 17.7728 24.5 17.375 24.5Z" fill="#FFFFFF"/>
</svg>
