<svg width="46" height="46" viewBox="0 0 46 46" fill="none" xmlns="http://www.w3.org/2000/svg">
<rect width="46" height="46" rx="23" fill="#3F79C4"/>
<path d="M23 13C24.3261 13 25.5979 13.5268 26.5355 14.4645C27.4732 15.4021 28 16.6739 28 18C28 19.3261 27.4732 20.5979 26.5355 21.5355C25.5979 22.4732 24.3261 23 23 23C21.6739 23 20.4021 22.4732 19.4645 21.5355C18.5268 20.5979 18 19.3261 18 18C18 16.6739 18.5268 15.4021 19.4645 14.4645C20.4021 13.5268 21.6739 13 23 13ZM23 15.5C22.337 15.5 21.7011 15.7634 21.2322 16.2322C20.7634 16.7011 20.5 17.337 20.5 18C20.5 18.663 20.7634 19.2989 21.2322 19.7678C21.7011 20.2366 22.337 20.5 23 20.5C23.663 20.5 24.2989 20.2366 24.7678 19.7678C25.2366 19.2989 25.5 18.663 25.5 18C25.5 17.337 25.2366 16.7011 24.7678 16.2322C24.2989 15.7634 23.663 15.5 23 15.5ZM23 24.25C26.3375 24.25 33 25.9125 33 29.25V33H13V29.25C13 25.9125 19.6625 24.25 23 24.25ZM23 26.625C19.2875 26.625 15.375 28.45 15.375 29.25V30.625H30.625V29.25C30.625 28.45 26.7125 26.625 23 26.625Z" fill="#FFFFFF"/>
</svg>
