<svg width="35" height="36" viewBox="0 0 35 36" fill="none" xmlns="http://www.w3.org/2000/svg">
<path d="M31.5 35.875H3.5C1.575 35.875 0 34.3 0 32.375V14.0875C0 12.95 0.525 11.9 1.4875 11.2L17.5 0L33.5125 11.2C34.475 11.8125 35 12.95 35 14.0875V32.375C35 34.3 33.425 35.875 31.5 35.875Z" fill="#639CE5"/>
<path d="M7 9.625H28V28.875H7V9.625Z" fill="white"/>
<path d="M31.5 35.875H3.5C1.575 35.875 0 34.3 0 32.375V14.875L17.5 26.25L35 14.875V32.375C35 34.3 33.425 35.875 31.5 35.875Z" fill="#639CE5"/>
<path d="M15.75 12.25H19.25V22.75H15.75V12.25Z" fill="#639CE5"/>
<path d="M12.25 15.75H22.75V19.25H12.25V15.75Z" fill="#639CE5"/>
</svg>
