<svg width="15" height="16" viewBox="0 0 15 16" fill="none" xmlns="http://www.w3.org/2000/svg">
<path d="M3.33333 15.5V13.8333H6.66667V11.25C5.98611 11.0972 5.37861 10.8092 4.84417 10.3858C4.30972 9.9625 3.91722 9.43111 3.66667 8.79167C2.625 8.66667 1.75361 8.21194 1.0525 7.4275C0.351389 6.64305 0.000555556 5.72278 0 4.66667V3.83333C0 3.375 0.163333 2.98278 0.49 2.65667C0.816667 2.33056 1.20889 2.16722 1.66667 2.16667H3.33333V0.5H11.6667V2.16667H13.3333C13.7917 2.16667 14.1842 2.33 14.5108 2.65667C14.8375 2.98333 15.0006 3.37556 15 3.83333V4.66667C15 5.72222 14.6492 6.6425 13.9475 7.4275C13.2458 8.2125 12.3744 8.66722 11.3333 8.79167C11.0833 9.43056 10.6911 9.96194 10.1567 10.3858C9.62222 10.8097 9.01445 11.0978 8.33333 11.25V13.8333H11.6667V15.5H3.33333ZM3.33333 7V3.83333H1.66667V4.66667C1.66667 5.19444 1.81944 5.67028 2.125 6.09417C2.43056 6.51806 2.83333 6.82 3.33333 7ZM11.6667 7C12.1667 6.81944 12.5694 6.51722 12.875 6.09333C13.1806 5.66944 13.3333 5.19389 13.3333 4.66667V3.83333H11.6667V7Z" fill="#3F79C4"/>
</svg>
