<svg width="30" height="30" viewBox="0 0 30 30" fill="none" xmlns="http://www.w3.org/2000/svg">
<path d="M15 28.125C7.7625 28.125 1.875 22.2375 1.875 15C1.875 7.7625 7.7625 1.875 15 1.875C22.2375 1.875 28.125 7.7625 28.125 15C28.125 22.2375 22.2375 28.125 15 28.125ZM15 3.75C8.79375 3.75 3.75 8.79375 3.75 15C3.75 21.2062 8.79375 26.25 15 26.25C21.2062 26.25 26.25 21.2062 26.25 15C26.25 8.79375 21.2062 3.75 15 3.75Z" fill="#3F79C4"/>
<path d="M15 22.5C19.1421 22.5 22.5 19.1421 22.5 15C22.5 10.8579 19.1421 7.5 15 7.5C10.8579 7.5 7.5 10.8579 7.5 15C7.5 19.1421 10.8579 22.5 15 22.5Z" fill="#3F79C4"/>
</svg>
