<svg width="17" height="17" viewBox="0 0 17 17" fill="none" xmlns="http://www.w3.org/2000/svg">
<path d="M11 16.0002H6V9.00018C6 8.86757 6.05268 8.74039 6.14645 8.64662C6.24021 8.55285 6.36739 8.50018 6.5 8.50018H10.5C10.6326 8.50018 10.7598 8.55285 10.8536 8.64662C10.9473 8.74039 11 8.86757 11 9.00018V16.0002ZM15.5 16.0002H11V13.5835C11 13.4509 11.0527 13.3237 11.1464 13.23C11.2402 13.1362 11.3674 13.0835 11.5 13.0835H15.5C15.6326 13.0835 15.7598 13.1362 15.8536 13.23C15.9473 13.3237 16 13.4509 16 13.5835V15.5002C16 15.6328 15.9473 15.76 15.8536 15.8537C15.7598 15.9475 15.6326 16.0002 15.5 16.0002ZM6 16.0002V11.9168C6 11.7842 5.94732 11.6571 5.85355 11.5633C5.75979 11.4695 5.63261 11.4168 5.5 11.4168H1.5C1.36739 11.4168 1.24021 11.4695 1.14645 11.5633C1.05268 11.6571 1 11.7842 1 11.9168V15.5002C1 15.6328 1.05268 15.76 1.14645 15.8537C1.24021 15.9475 1.36739 16.0002 1.5 16.0002H6ZM7.505 2.76101L8.2625 1.15518C8.28295 1.10927 8.31627 1.07027 8.35842 1.04291C8.40057 1.01554 8.44974 1.00098 8.5 1.00098C8.55025 1.00098 8.59943 1.01554 8.64158 1.04291C8.68373 1.07027 8.71705 1.10927 8.7375 1.15518L9.49583 2.76101L11.1892 3.02018C11.4067 3.05351 11.4933 3.33351 11.3358 3.49351L10.1108 4.74351L10.4 6.50851C10.4367 6.73518 10.21 6.90851 10.015 6.80101L8.5 5.96768L6.985 6.80101C6.79083 6.90768 6.56333 6.73518 6.6 6.50851L6.88917 4.74351L5.66417 3.49351C5.50583 3.33351 5.59333 3.05351 5.81 3.02018L7.505 2.76101Z" fill="#3F79C4"/>
<path d="M11 16.0002H6M11 16.0002V9.00018C11 8.86757 10.9473 8.74039 10.8536 8.64662C10.7598 8.55285 10.6326 8.50018 10.5 8.50018H6.5C6.36739 8.50018 6.24021 8.55285 6.14645 8.64662C6.05268 8.74039 6 8.86757 6 9.00018V16.0002M11 16.0002H15.5C15.6326 16.0002 15.7598 15.9475 15.8536 15.8537C15.9473 15.76 16 15.6328 16 15.5002V13.5835C16 13.4509 15.9473 13.3237 15.8536 13.23C15.7598 13.1362 15.6326 13.0835 15.5 13.0835H11.5C11.3674 13.0835 11.2402 13.1362 11.1464 13.23C11.0527 13.3237 11 13.4509 11 13.5835V16.0002ZM6 16.0002V11.9168C6 11.7842 5.94732 11.6571 5.85355 11.5633C5.75979 11.4695 5.63261 11.4168 5.5 11.4168H1.5C1.36739 11.4168 1.24021 11.4695 1.14645 11.5633C1.05268 11.6571 1 11.7842 1 11.9168V15.5002C1 15.6328 1.05268 15.76 1.14645 15.8537C1.24021 15.9475 1.36739 16.0002 1.5 16.0002H6ZM7.505 2.76101L8.2625 1.15518C8.28295 1.10927 8.31627 1.07027 8.35842 1.04291C8.40057 1.01554 8.44974 1.00098 8.5 1.00098C8.55025 1.00098 8.59943 1.01554 8.64158 1.04291C8.68373 1.07027 8.71705 1.10927 8.7375 1.15518L9.49583 2.76101L11.1892 3.02018C11.4067 3.05351 11.4933 3.33351 11.3358 3.49351L10.1108 4.74351L10.4 6.50851C10.4367 6.73518 10.21 6.90851 10.015 6.80101L8.5 5.96768L6.985 6.80101C6.79083 6.90768 6.56333 6.73518 6.6 6.50851L6.88917 4.74351L5.66417 3.49351C5.50583 3.33351 5.59333 3.05351 5.81 3.02018L7.505 2.76101Z" stroke="white" stroke-width="0.6" stroke-linecap="round" stroke-linejoin="round"/>
</svg>
