<svg width="28" height="28" viewBox="0 0 28 28" fill="none" xmlns="http://www.w3.org/2000/svg">
<g clip-path="url(#clip0_1_90)">
<path d="M0.824692 15.6909L4.39907 12.1691L10.4847 11.0906L9.88313 14.2756L1.65594 16.8044L1.12438 16.5747L0.824692 15.6909Z" fill="#CA2C31"/>
<path d="M5.01812 13.0725L1.1375 16.5988L3.99218 17.99L8.32562 15.7784V14.735L9.21156 12.3463L5.01812 13.0725ZM14.2012 19.2828L12.3266 20.0966L10.5569 23.8481C10.5569 23.8481 12.1144 27.2978 12.1844 27.2978C12.2544 27.2978 13.1403 27.3678 13.1403 27.3678L16.2903 23.8459L17.0866 17.8303L14.2012 19.2828Z" fill="#A02422"/>
<path d="M12.3594 22.0588C12.3594 22.0588 13.4028 21.8466 14.1466 21.4922C14.8903 21.1378 15.8091 20.6085 15.8091 20.6085L15.4722 23.5463L12.18 27.2935C12.18 27.2935 12.0509 27.1338 11.5041 25.9438C11.0688 24.9944 10.9178 24.6553 10.9178 24.6553L12.3594 22.0588Z" fill="#CA2C31"/>
<path d="M6.90813 17.6444C6.90813 17.6444 5.6525 17.5394 4.27656 19.2785C3.02094 20.8666 2.4325 23.4522 2.205 24.1172C1.9775 24.7822 1.43281 24.9178 1.61438 25.2219C1.79594 25.526 2.58125 25.5085 3.55031 25.3882C4.51938 25.2678 5.35063 24.9638 5.35063 24.9638C5.35063 24.9638 5.30906 25.0688 5.16906 25.2963C5.11875 25.3772 4.94375 25.4932 4.95688 25.6135C4.9875 25.9 7.44188 25.9066 9.40188 23.8897C11.5194 21.7132 10.4913 19.9282 10.4913 19.9282L6.90813 17.6444Z" fill="#F7D74D"/>
<path d="M7.28656 18.6572C7.28656 18.6572 5.9325 18.7294 4.8125 20.4684C3.6925 22.2075 3.17188 24.2222 3.27906 24.3578C3.38406 24.4934 5.47094 23.7387 5.97188 23.8897C6.31531 23.9947 6.13813 24.3425 6.23 24.4344C6.30656 24.5109 7.21219 24.64 8.67781 23.0519C10.1456 21.4637 9.79781 19.2325 9.79781 19.2325L7.28656 18.6572Z" fill="#FBF0B4"/>
<path d="M7.95157 16.2838C7.95157 16.2838 7.27125 16.8897 7.02844 17.2375C6.78563 17.5853 6.78563 17.6159 6.80094 17.7209C6.81625 17.8259 7.06781 18.9788 8.11563 19.9894C9.40188 21.2297 10.5503 21.3959 10.7166 21.3959C10.8828 21.3959 11.9875 20.1556 11.9875 20.1556L7.95157 16.2838Z" fill="#858585"/>
<path d="M10.9594 19.9587C10.9594 19.9587 12.0619 20.6828 13.9103 20.0616C16.4369 19.2128 18.2897 17.3141 20.5844 14.9166C22.7981 12.6022 24.6553 9.72999 24.6553 9.72999L23.3537 5.3703L10.9594 19.9587Z" fill="#437687"/>
<path d="M14.8728 17.5722L15.1769 16.6272L15.9381 16.7344C15.9381 16.7344 16.5178 17.0078 16.9444 17.2069C17.3709 17.4059 17.92 17.5569 17.92 17.5569L16.8372 18.4713C16.8372 18.4713 16.2466 18.2481 15.8156 18.06C15.33 17.8478 14.8728 17.5722 14.8728 17.5722Z" fill="#3F545F"/>
<path d="M18.445 3.53064C18.445 3.53064 16.3406 4.75126 13.3241 7.60595C10.605 10.1785 8.59032 12.506 8.1025 14.4856C7.69563 16.1438 7.91219 17.15 8.83751 18.2372C9.81532 19.3878 10.9616 19.9588 10.9616 19.9588C10.9616 19.9588 11.8234 19.9719 15.4197 17.2047C19.9063 13.7506 23.5003 7.96689 23.5003 7.96689L18.445 3.53064Z" fill="#8DAFBF"/>
<path d="M22.7894 9.15252C22.7894 9.15252 20.9584 8.37159 19.6525 6.5494C18.3553 4.74034 18.4581 3.51752 18.4581 3.51752C18.4581 3.51752 19.5431 2.66659 21.9822 1.69315C23.6228 1.03909 25.8562 0.704398 26.5912 1.24909C27.3262 1.79377 26.0881 4.52596 26.0881 4.52596L23.8328 8.89221L22.7894 9.15252Z" fill="#D83F22"/>
<path d="M14.9122 17.5875C14.9122 17.5875 13.3306 16.7803 12.3244 15.6319C10.4212 13.464 10.0275 11.084 10.0275 11.084L10.9834 9.96185C10.9834 9.96185 11.2219 12.4906 13.2628 14.6759C14.5928 16.1 15.9819 16.7519 15.9819 16.7519C15.9819 16.7519 15.7041 16.9859 15.4066 17.2134C15.2162 17.36 14.9122 17.5875 14.9122 17.5875Z" fill="#6896A5"/>
<path d="M24.6553 9.72998C24.6553 9.72998 25.6047 8.58592 26.5037 6.00685C27.7594 2.4106 26.6656 1.32123 26.6656 1.32123C26.6656 1.32123 26.2959 3.03185 25.0119 5.40967C23.9816 7.31498 22.7347 9.12842 22.7347 9.12842C22.7347 9.12842 23.4216 9.43685 23.7934 9.54404C24.2616 9.67967 24.6553 9.72998 24.6553 9.72998Z" fill="#A02422"/>
<path d="M8.70844 15.2381C8.99281 15.5094 9.42375 15.225 9.70594 14.56C9.99031 13.895 9.98594 13.5231 9.76719 13.3656C9.49594 13.1688 9.04094 13.5997 8.84187 13.9825C8.62312 14.4069 8.49406 15.0325 8.70844 15.2381ZM18.5828 4.40344C18.5828 4.40344 16.9181 5.60001 15.1419 7.2275C13.5122 8.72157 12.4316 9.88969 12.2828 10.1609C12.1253 10.4519 12.1231 10.8631 12.2456 11.0731C12.3681 11.2831 12.6394 11.3925 12.8866 11.2088C13.1337 11.0228 14.8947 9.07594 16.485 7.68469C17.9397 6.41157 19.0619 5.60438 19.0619 5.60438C19.0619 5.60438 19.5169 4.79938 19.4425 4.61563C19.3681 4.42969 18.5828 4.40344 18.5828 4.40344Z" fill="#B3E1EE"/>
<path d="M18.5828 4.40343C18.5828 4.40343 19.8122 3.46062 21.1509 2.79781C22.3956 2.18093 23.6337 1.66687 23.8569 2.11312C24.0691 2.5375 22.6822 3.115 21.4616 3.89375C20.2409 4.6725 19.0662 5.60218 19.0662 5.60218C19.0662 5.60218 18.8869 5.27406 18.7709 4.97C18.6975 4.78486 18.6347 4.5957 18.5828 4.40343Z" fill="#ED6A65"/>
<path d="M19.5978 8.58594C18.3794 7.46375 16.6841 7.76563 15.8484 8.76313C14.9909 9.79125 15.0544 11.3619 16.0672 12.3069C16.9881 13.1644 18.7009 13.3591 19.7334 12.1559C20.6522 11.0884 20.5953 9.5025 19.5978 8.58594Z" fill="#E1E1E1"/>
<path d="M16.4784 9.15907C15.7544 9.87001 15.7937 11.2788 16.6556 11.9219C17.4081 12.4841 18.4756 12.4556 19.145 11.7709C19.8144 11.0863 19.8144 9.84157 19.1866 9.19845C18.4647 8.46126 17.3075 8.34532 16.4784 9.15907Z" fill="#3F545F"/>
<path d="M10.9375 16.8197C10.9375 16.8197 12.2916 15.4459 12.4403 15.5947C12.5891 15.7434 12.5694 16.5769 11.9219 17.5044C11.2722 18.4319 9.84375 20.0834 8.71281 21.1969C7.59719 22.2928 6.02438 23.5463 5.87563 23.5244C5.75969 23.5069 5.28938 23.2728 5.10125 23.0453C4.9175 22.82 5.46656 21.7547 5.6875 21.4025C5.91063 21.0503 10.9375 16.8197 10.9375 16.8197Z" fill="#A02524"/>
<path d="M4.64407 22.2797C4.62657 22.5947 5.10782 23.054 5.10782 23.054L12.4403 15.5968C12.4403 15.5968 12.0969 15.2097 11.0863 15.8375C10.0669 16.4718 9.17438 17.2331 7.8575 18.5084C6.02219 20.289 4.66157 21.9647 4.64407 22.2797Z" fill="#CA2C31"/>
<path d="M4.16938 8.08279C3.92657 8.3256 3.91563 8.71498 4.18688 8.9381C4.42751 9.13717 4.81907 9.0081 4.96563 8.82873C5.1122 8.64935 5.0947 8.25998 4.90001 8.06748C4.70532 7.87279 4.31813 7.93623 4.16938 8.08279Z" fill="white"/>
<path opacity="0.5" d="M8.97312 7.79843C8.78937 8.00187 8.84844 8.30375 9.01906 8.41531C9.18969 8.52687 9.44562 8.51593 9.57031 8.36281C9.68187 8.225 9.695 7.94937 9.52437 7.77875C9.37562 7.63218 9.09125 7.66718 8.97312 7.79843Z" fill="white"/>
<path d="M12.1516 2.60095C12.1516 2.60095 12.4184 1.8397 12.5759 1.83095C12.7356 1.8222 12.9653 2.5922 12.9653 2.5922C12.9653 2.5922 13.755 2.60095 13.8075 2.71688C13.8753 2.86563 13.3022 3.36438 13.3022 3.36438C13.3022 3.36438 13.4881 4.10813 13.4006 4.19782C13.3022 4.29626 12.6219 3.9047 12.6219 3.9047C12.6219 3.9047 11.9219 4.39251 11.7709 4.25907C11.6397 4.14313 11.9131 3.35563 11.9131 3.35563C11.9131 3.35563 11.2569 2.87657 11.2919 2.74313C11.3422 2.55501 12.1516 2.60095 12.1516 2.60095ZM21.2209 20.8534C21.4856 21 21.8181 20.9169 21.9406 20.6347C22.0522 20.3831 21.8466 20.0834 21.6606 20.0025C21.4747 19.9216 21.1488 20.0288 21.0306 20.2409C20.9147 20.4509 21.0613 20.7659 21.2209 20.8534ZM24.9791 14.4025C24.8281 14.1684 24.5022 14.0919 24.29 14.28C24.0844 14.4638 24.1347 14.7525 24.2506 14.8991C24.3666 15.0456 24.6772 15.1003 24.8653 14.98C25.0534 14.8597 25.0709 14.5425 24.9791 14.4025Z" fill="white"/>
</g>
<defs>
<clipPath id="clip0_1_90">
<rect width="28" height="28" fill="white"/>
</clipPath>
</defs>
</svg>
