<svg width="18" height="20" viewBox="0 0 18 20" fill="none" xmlns="http://www.w3.org/2000/svg">
<path d="M4.09931 13.9964C3.59814 14.0698 2.77314 14.2066 2.22431 13.5839C1.67548 12.9612 1.20087 11.4577 0.992277 10.114C0.684464 8.13351 0.989933 6.46437 1.85165 5.41437C2.35946 4.79601 3.02587 4.4378 3.779 4.38077C4.42392 4.33116 5.38759 4.58351 6.31806 6.06788C6.90087 6.99796 7.34423 8.23351 7.53446 9.45734C7.76415 10.9347 7.98798 12.5112 7.20478 13.0765C6.76298 13.3956 6.44579 13.5062 5.69618 13.6847C5.07978 13.8312 4.60087 13.9226 4.09931 13.9964ZM3.2079 15.2671L7.46142 14.3898C7.82079 14.3155 8.10907 14.5132 8.24267 15.1054C8.68095 17.0491 8.05282 19.3749 6.08564 19.3749C4.22275 19.3749 2.98134 17.2515 2.7786 16.1101C2.68603 15.5925 2.81806 15.3472 3.2079 15.2671ZM12.3044 9.93507C11.5548 9.75734 11.2376 9.64601 10.7958 9.32687C10.0126 8.76163 10.2364 7.18507 10.4661 5.70773C10.6563 4.4839 11.0997 3.24679 11.6825 2.31827C12.6122 0.833899 13.5759 0.581555 14.2216 0.631164C14.9739 0.688586 15.6407 1.04601 16.1485 1.66437C17.011 2.71437 17.3165 4.38351 17.0079 6.36398C16.7989 7.70773 16.3259 9.20616 15.7739 9.8339C15.222 10.4616 14.4017 10.3198 13.8989 10.2464C13.3962 10.173 12.9204 10.0812 12.3044 9.93507ZM14.7923 11.5171L10.5388 10.6398C10.1794 10.5655 9.8911 10.7632 9.75751 11.3554C9.31962 13.2991 9.94775 15.6249 11.9149 15.6249C13.7778 15.6249 15.0192 13.5015 15.222 12.3601C15.3142 11.8425 15.1821 11.5972 14.7923 11.5171Z" fill="#639CE5"/>
</svg>
