<svg width="27" height="26" viewBox="0 0 27 26" fill="none" xmlns="http://www.w3.org/2000/svg">
<path fill-rule="evenodd" clip-rule="evenodd" d="M9.50216 5.89964C9.86782 5.36269 10.5107 5.08012 11.1561 5.17463C11.8656 5.27851 12.3786 5.79746 12.5653 6.39013C12.625 6.57971 12.7165 6.81685 12.8457 7.04039C12.9767 7.26713 13.1226 7.43871 13.2734 7.5461C13.4631 7.68112 13.6648 7.69481 13.8948 7.63911C14.0111 7.61095 14.1143 7.56833 14.1882 7.532C14.2009 7.52574 14.2124 7.51987 14.2225 7.51454C14.2301 7.50756 14.2382 7.50019 14.2467 7.49245C14.4307 7.32447 14.8015 6.98593 15.1781 6.76016C15.6599 6.47141 16.5215 6.13675 17.4077 6.67383C17.9509 7.00304 18.1635 7.53996 18.2607 7.91173C18.3593 8.28927 18.3927 8.71312 18.4171 9.05623C18.4194 9.08759 18.4216 9.11864 18.4237 9.14937C18.4763 9.89082 18.516 10.451 18.7177 10.8898C18.7563 10.9738 18.7936 11.055 18.8297 11.1337C19.4324 12.4477 19.714 13.0617 20.5942 14.0799C20.992 14.5402 21.4483 14.8567 22.0049 15.2345C22.0216 15.2459 22.0385 15.2574 22.0556 15.2689C22.5728 15.6197 23.2141 16.0547 23.7285 16.6998C24.002 17.0426 24.2213 17.4524 24.3012 17.9325C24.3823 18.4197 24.3062 18.8983 24.1142 19.35C23.7622 20.1776 23.0539 20.5456 22.4615 20.6975C21.89 20.8441 21.3025 20.8273 20.917 20.8029C18.8704 20.6735 17.0663 19.7608 15.1781 18.6406C12.7993 17.2292 10.2659 15.776 8.20775 13.9009C7.35186 13.1211 6.51968 11.8271 6.15444 11.2313C5.73162 10.5416 5.89088 9.67391 6.4807 9.16462C6.77657 8.90914 7.23011 8.52505 7.62774 8.22194C7.8892 8.00123 8.24087 7.60172 8.60826 7.13104C8.96952 6.6682 9.29891 6.1981 9.50216 5.89964ZM15.5229 9.25632L15.4685 9.29286L15.4661 9.29452L15.4623 9.297L15.4535 9.30283L15.4302 9.31775C15.4123 9.32907 15.3895 9.3431 15.3622 9.35921C15.3076 9.39131 15.2339 9.43223 15.1439 9.47649C14.9661 9.56388 14.7117 9.67059 14.4047 9.74493C13.7881 9.89422 12.8799 9.92556 12.0169 9.31121C11.4323 8.89503 11.0498 8.3172 10.8048 7.81384C10.6552 8.01996 10.4897 8.24191 10.3162 8.46418C9.92848 8.96096 9.44984 9.52622 8.99435 9.9035L8.97659 9.91821L8.95821 9.93215C8.73709 10.1 8.48474 10.3062 8.25445 10.4997C8.64248 11.0982 9.18389 11.8592 9.66694 12.2993C12.0217 14.4446 18.1244 18.4553 21.0538 18.6406C21.3925 18.662 21.6968 18.6568 21.9232 18.5988C22.028 18.5719 22.0798 18.5423 22.1002 18.5274C22.1121 18.5187 22.1145 18.5157 22.1203 18.5021C22.1742 18.3753 22.1682 18.3141 22.1639 18.2883C22.1585 18.2554 22.1369 18.179 22.0346 18.0507C21.7416 17.6833 21.3581 17.4143 20.7879 17.0271L20.7612 17.009C20.2262 16.6459 19.5537 16.1894 18.9551 15.4968C17.8703 14.2419 17.477 13.3834 16.8733 12.0657C16.833 11.9775 16.7916 11.8873 16.7491 11.7948C16.3729 10.9764 16.3101 10.0262 16.2679 9.38641C16.2638 9.32466 16.2599 9.26579 16.2559 9.21022C16.2399 8.98483 16.2242 8.81129 16.2052 8.67504C16.1299 8.72749 16.0473 8.79318 15.9561 8.8717C15.8937 8.92551 15.8331 8.98015 15.7689 9.03825C15.7634 9.04322 15.7578 9.04828 15.7522 9.05342C15.6961 9.1042 15.6318 9.16253 15.5718 9.21419L15.5229 9.25632Z" fill="#CDFF49"/>
<path fill-rule="evenodd" clip-rule="evenodd" d="M2.66669 19.7711C2.66669 19.1728 3.15171 18.6877 3.75002 18.6877H11.875C12.4733 18.6877 12.9584 19.1728 12.9584 19.7711C12.9584 20.3694 12.4733 20.8544 11.875 20.8544H3.75002C3.15171 20.8544 2.66669 20.3694 2.66669 19.7711Z" fill="#CDFF49"/>
<path fill-rule="evenodd" clip-rule="evenodd" d="M2.66669 15.9795C2.66669 15.3811 3.15171 14.8961 3.75002 14.8961H5.91669C6.515 14.8961 7.00002 15.3811 7.00002 15.9795C7.00002 16.5778 6.515 17.0628 5.91669 17.0628H3.75002C3.15171 17.0628 2.66669 16.5778 2.66669 15.9795Z" fill="#CDFF49"/>
</svg>
