<svg width="26" height="24" viewBox="0 0 26 24" fill="none" xmlns="http://www.w3.org/2000/svg">
<path d="M8.9275 0.772475C8.89015 0.568051 8.77376 0.386574 8.60355 0.267365C8.43333 0.148156 8.223 0.100815 8.01813 0.1356C7.91716 0.152706 7.82061 0.189714 7.73408 0.244473C7.64754 0.299232 7.57276 0.370649 7.51408 0.45457C7.4554 0.538491 7.41399 0.633242 7.39226 0.733312C7.37053 0.833382 7.36891 0.936774 7.3875 1.03748C7.40417 1.12623 7.42208 1.21414 7.44125 1.30123C5.15375 2.25498 3.8525 3.51248 3.145 4.88685C2.42688 6.2831 2.37875 7.7056 2.37563 8.76373L0.927501 10.625C0.756848 10.8445 0.633096 11.0968 0.563911 11.3661C0.494726 11.6355 0.481582 11.9162 0.525292 12.1908C0.569003 12.4654 0.668637 12.7281 0.818023 12.9627C0.967409 13.1972 1.16336 13.3986 1.39375 13.5543L13.3112 21.6137C14.8878 22.6798 16.7475 23.2494 18.6506 23.2494H21.5163C22.5726 23.2494 23.5858 22.8297 24.3327 22.0827C25.0797 21.3357 25.4994 20.3226 25.4994 19.2662C25.4994 17.0281 23.6375 15.4537 21.9119 14.7037C21.3 14.4381 20.7831 14.0737 20.4537 13.5869L16.5888 6.99185C16.6375 6.98435 16.6858 6.97643 16.7338 6.9681C16.8345 6.95098 16.9309 6.91403 17.0173 6.8594C17.1037 6.80476 17.1784 6.73352 17.237 6.64981C17.2957 6.56609 17.3371 6.47157 17.359 6.37172C17.3809 6.27186 17.3827 6.16866 17.3644 6.0681C17.3272 5.86356 17.2108 5.68193 17.0406 5.56259C16.8704 5.44326 16.66 5.39583 16.455 5.4306C16.2125 5.47227 15.9683 5.49956 15.7225 5.51248L15.6925 5.46185L15.5962 5.5181C14.2188 5.5656 12.815 5.1806 11.6431 4.46623C10.2269 3.60372 9.20438 2.29747 8.9275 0.772475ZM14.82 7.0631L19.1175 14.3975L19.1406 14.435C19.6925 15.265 20.5044 15.7956 21.2894 16.1369C22.3963 16.6181 23.2975 17.3719 23.7038 18.2481H18.6869C17.7216 18.2481 16.7784 17.9598 15.9781 17.42L13.095 15.4743L14.6388 14.5831C15.0335 14.3552 15.3215 13.9799 15.4395 13.5397C15.5576 13.0995 15.4959 12.6304 15.2681 12.2356L13.8244 9.73497C13.5965 9.34026 13.2212 9.05221 12.781 8.93418C12.3407 8.81616 11.8716 8.87782 11.4769 9.1056L7.26125 11.5394L5.92688 10.6393L7.76813 9.57685C7.9636 9.46397 8.13493 9.31368 8.27232 9.13458C8.40971 8.95548 8.51047 8.75107 8.56886 8.53302C8.62725 8.31497 8.64211 8.08756 8.6126 7.86377C8.58309 7.63997 8.50979 7.42419 8.39688 7.22872L6.33125 3.65123C6.84762 3.30462 7.39721 3.01025 7.97188 2.77248C8.60625 4.02997 9.63188 5.06185 10.8356 5.7956C12.0439 6.52938 13.4099 6.96394 14.82 7.0631ZM11.6538 14.5025L8.7025 12.5112L12.2581 10.4587C12.2939 10.4381 12.3365 10.4325 12.3764 10.4431C12.4164 10.4538 12.4505 10.4799 12.4712 10.5156L13.915 13.0169C13.9356 13.0527 13.9413 13.0952 13.9306 13.1352C13.9199 13.1751 13.8939 13.2092 13.8581 13.23L11.6538 14.5025ZM4.535 5.60123C4.70052 5.28073 4.90248 4.98041 5.13688 4.70622L7.04375 8.00997C7.0644 8.0458 7.07 8.08834 7.05934 8.12829C7.04868 8.16823 7.02262 8.20233 6.98688 8.2231L4.48625 9.66685L3.9375 9.29685V9.03123C3.9375 7.92623 3.94813 6.7406 4.535 5.60123ZM2.16125 11.5837L2.9775 10.5337L15.1044 18.715C16.1627 19.429 17.4102 19.8105 18.6869 19.8106H23.8756C23.7523 20.344 23.4519 20.8198 23.0234 21.1605C22.595 21.5013 22.0637 21.6868 21.5163 21.6869H18.65C17.0589 21.6869 15.5043 21.2106 14.1863 20.3194L2.26875 12.26C2.21556 12.224 2.17031 12.1775 2.13583 12.1234C2.10134 12.0692 2.07834 12.0086 2.06826 11.9452C2.05818 11.8818 2.06124 11.817 2.07723 11.7548C2.09323 11.6926 2.12183 11.6344 2.16125 11.5837Z" fill="#121212"/>
</svg>
