<svg width="32" height="37" viewBox="0 0 32 37" fill="none" xmlns="http://www.w3.org/2000/svg">
<path fill-rule="evenodd" clip-rule="evenodd" d="M15.8333 36.5C17.9016 36.5 19.9496 36.0926 21.8605 35.3011C23.7714 34.5096 25.5077 33.3494 26.9702 31.8869C28.4327 30.4244 29.5928 28.6881 30.3844 26.7773C31.1759 24.8664 31.5833 22.8183 31.5833 20.75C31.5833 18.6817 31.1759 16.6336 30.3844 14.7227C29.5928 12.8119 28.4327 11.0756 26.9702 9.61307C25.5077 8.15054 23.7714 6.99041 21.8605 6.1989C19.9496 5.40739 17.9016 5 15.8333 5C11.6561 5 7.65002 6.65937 4.69632 9.61307C1.74262 12.5668 0.083252 16.5728 0.083252 20.75C0.083252 24.9272 1.74262 28.9332 4.69632 31.8869C7.65002 34.8406 11.6561 36.5 15.8333 36.5ZM15.8333 12.4375C16.1813 12.4375 16.5152 12.5758 16.7613 12.8219C17.0075 13.0681 17.1458 13.4019 17.1458 13.75V20.75C17.1458 21.0981 17.0075 21.4319 16.7613 21.6781C16.5152 21.9242 16.1813 22.0625 15.8333 22.0625C15.4852 22.0625 15.1513 21.9242 14.9052 21.6781C14.659 21.4319 14.5208 21.0981 14.5208 20.75V13.75C14.5208 13.4019 14.659 13.0681 14.9052 12.8219C15.1513 12.5758 15.4852 12.4375 15.8333 12.4375ZM11.0208 1.5C11.0208 1.1519 11.159 0.818064 11.4052 0.571922C11.6513 0.325781 11.9852 0.1875 12.3333 0.1875H19.3333C19.6813 0.1875 20.0152 0.325781 20.2613 0.571922C20.5075 0.818064 20.6458 1.1519 20.6458 1.5C20.6458 1.8481 20.5075 2.18194 20.2613 2.42808C20.0152 2.67422 19.6813 2.8125 19.3333 2.8125H12.3333C11.9852 2.8125 11.6513 2.67422 11.4052 2.42808C11.159 2.18194 11.0208 1.8481 11.0208 1.5Z" fill="#639CE5"/>
</svg>
