<svg width="29" height="39" viewBox="0 0 29 39" fill="none" xmlns="http://www.w3.org/2000/svg">
<path d="M19.1251 7.625C21.0326 7.625 22.6251 6.015 22.6251 4.125C22.6251 3.19674 22.2564 2.3065 21.6 1.65013C20.9436 0.993749 20.0534 0.625 19.1251 0.625C17.1826 0.625 15.6251 2.165 15.6251 4.125C15.6251 6.015 17.1826 7.625 19.1251 7.625ZM12.8076 31.915L14.5576 24.25L18.2501 27.75V38.25H21.7501V25.125L18.0576 21.625L19.1251 16.375C20.3242 17.749 21.8036 18.8503 23.4638 19.6049C25.124 20.3596 26.9265 20.75 28.7501 20.75V17.25C25.4076 17.25 22.6251 15.5 21.2076 13.015L19.4576 10.25C18.7576 9.165 17.7076 8.5 16.5001 8.5C15.9576 8.5 15.6251 8.64 15.0826 8.64L6.00012 12.49V20.75H9.50012V14.765L12.6326 13.54L9.83262 27.75L1.25762 26L0.557617 29.5L12.8076 31.915Z" fill="#639CE5"/>
</svg>
