<svg width="14" height="16" viewBox="0 0 14 16" fill="none" xmlns="http://www.w3.org/2000/svg">
<path fill-rule="evenodd" clip-rule="evenodd" d="M7 16C7.91925 16 8.8295 15.8205 9.67878 15.4717C10.5281 15.123 11.2997 14.6118 11.9497 13.9674C12.5998 13.323 13.1154 12.5579 13.4672 11.716C13.8189 10.874 14 9.97158 14 9.06024C14 8.1489 13.8189 7.24648 13.4672 6.40451C13.1154 5.56254 12.5998 4.79751 11.9497 4.15309C11.2997 3.50867 10.5281 2.9975 9.67878 2.64874C8.8295 2.29998 7.91925 2.12048 7 2.12048C5.14348 2.12048 3.36301 2.85163 2.05025 4.15309C0.737498 5.45455 0 7.2197 0 9.06024C0 10.9008 0.737498 12.6659 2.05025 13.9674C3.36301 15.2688 5.14348 16 7 16ZM7 5.39759C7.15471 5.39759 7.30308 5.45852 7.41248 5.56697C7.52187 5.67543 7.58333 5.82253 7.58333 5.9759V9.06024C7.58333 9.21362 7.52187 9.36071 7.41248 9.46917C7.30308 9.57762 7.15471 9.63855 7 9.63855C6.84529 9.63855 6.69692 9.57762 6.58752 9.46917C6.47813 9.36071 6.41667 9.21362 6.41667 9.06024V5.9759C6.41667 5.82253 6.47813 5.67543 6.58752 5.56697C6.69692 5.45852 6.84529 5.39759 7 5.39759ZM4.86111 0.578313C4.86111 0.424935 4.92257 0.277839 5.03197 0.169384C5.14136 0.0609293 5.28973 0 5.44444 0H8.55556C8.71027 0 8.85864 0.0609293 8.96803 0.169384C9.07743 0.277839 9.13889 0.424935 9.13889 0.578313C9.13889 0.731691 9.07743 0.878788 8.96803 0.987243C8.85864 1.0957 8.71027 1.15663 8.55556 1.15663H5.44444C5.28973 1.15663 5.14136 1.0957 5.03197 0.987243C4.92257 0.878788 4.86111 0.731691 4.86111 0.578313Z" fill="#CDFF49"/>
</svg>
