<svg width="24" height="24" viewBox="0 0 24 24" fill="none" xmlns="http://www.w3.org/2000/svg">
<path d="M9.90594 19.0642C11.8528 19.0617 13.7501 18.4561 15.3323 17.3323L21.0859 23.0319C21.2151 23.1592 21.3685 23.2598 21.5373 23.3278C21.706 23.3959 21.8867 23.4301 22.0689 23.4285C22.8583 23.4285 23.4285 22.8272 23.4285 22.0577C23.4285 21.6971 23.3073 21.3605 23.04 21.0963L17.3227 15.4208C18.5242 13.8576 19.2405 11.922 19.2405 9.81757C19.2405 4.73149 15.0407 0.571411 9.90594 0.571411C4.75931 0.571411 0.57135 4.73149 0.57135 9.81757C0.57135 14.9036 4.75931 19.0642 9.90594 19.0642ZM9.90594 17.0681C5.88787 17.0681 2.58609 13.7858 2.58609 9.81757C2.58609 5.84987 5.88787 2.56706 9.90594 2.56706C13.9116 2.56706 17.2258 5.84987 17.2258 9.81757C17.2258 13.7858 13.9116 17.0681 9.90594 17.0681Z" fill="#112565"/>
</svg>
