<svg width="29" height="39" viewBox="0 0 29 39" fill="none" xmlns="http://www.w3.org/2000/svg">
<path d="M19.125 7.625C21.0325 7.625 22.625 6.015 22.625 4.125C22.625 3.19674 22.2562 2.3065 21.5999 1.65013C20.9435 0.993749 20.0533 0.625 19.125 0.625C17.1825 0.625 15.625 2.165 15.625 4.125C15.625 6.015 17.1825 7.625 19.125 7.625ZM12.8075 31.915L14.5575 24.25L18.25 27.75V38.25H21.75V25.125L18.0575 21.625L19.125 16.375C20.3241 17.749 21.8035 18.8503 23.4637 19.6049C25.1238 20.3596 26.9264 20.75 28.75 20.75V17.25C25.4075 17.25 22.625 15.5 21.2075 13.015L19.4575 10.25C18.7575 9.165 17.7075 8.5 16.5 8.5C15.9575 8.5 15.625 8.64 15.0825 8.64L5.99999 12.49V20.75H9.49999V14.765L12.6325 13.54L9.83249 27.75L1.25749 26L0.557495 29.5L12.8075 31.915Z" fill="#35B555"/>
</svg>
