<svg width="39" height="27" viewBox="0 0 39 27" fill="none" xmlns="http://www.w3.org/2000/svg">
<path fill-rule="evenodd" clip-rule="evenodd" d="M31.6593 0C35.2165 0 38.1001 2.8836 38.1001 6.4404C38.1001 9.998 35.2165 12.882 31.6593 12.882C28.1021 12.882 25.2181 9.998 25.2181 6.4404C25.2185 2.8836 28.1025 0 31.6593 0ZM24.8345 12.332L34.9213 24.978C34.9849 24.806 35.0197 24.62 35.0197 24.4264V13.3052C34.0057 13.8024 32.8649 14.0816 31.6597 14.0816C29.3813 14.0816 27.3357 13.0844 25.9357 11.5028L24.8345 12.332ZM11.6421 13.0532L17.3989 17.3896C17.6197 17.556 17.9189 17.5468 18.1273 17.3844L23.8773 13.0528L34.1025 25.8732C33.8941 25.972 33.6625 26.0276 33.4181 26.0276H2.10166C1.85726 26.0276 1.62526 25.972 1.41726 25.8732L11.6421 13.0532ZM0.598861 24.978L10.6853 12.332L0.592061 4.7288C0.532861 4.896 0.500061 5.0756 0.500061 5.2624V24.4264C0.500061 24.6204 0.535261 24.806 0.598861 24.978ZM17.7597 16.1612L1.39006 3.8292C1.60486 3.7216 1.84646 3.6616 2.10166 3.6616H24.5401C24.2033 4.5228 24.0185 5.46 24.0185 6.4404C24.0185 7.9516 24.4573 9.3604 25.2141 10.546L17.7597 16.1612ZM34.9709 5.8404H32.2597V3.1296C32.2597 2.798 31.9909 2.5292 31.6597 2.5292C31.3281 2.5292 31.0593 2.798 31.0593 3.1296V5.8404H28.3481C28.0169 5.8404 27.7481 6.1092 27.7481 6.4404C27.7481 6.772 28.0169 7.0408 28.3481 7.0408H31.0593V9.752C31.0593 10.0832 31.3281 10.352 31.6597 10.352C31.9909 10.352 32.2597 10.0832 32.2597 9.752V7.0408H34.9709C35.3017 7.0408 35.5709 6.772 35.5709 6.4404C35.5709 6.1092 35.3017 5.8404 34.9709 5.8404Z" fill="#3665F9"/>
</svg>
