<svg width="12" height="16" viewBox="0 0 12 16" fill="none" xmlns="http://www.w3.org/2000/svg">
<path d="M6 16C9.294 16 12 13.3896 12 10.0392C12 9.2168 11.958 8.3352 11.502 6.9648C11.046 5.5944 10.9544 5.4176 10.4724 4.5712C10.2664 6.298 9.1644 7.018 8.8844 7.2332C8.8844 7.0092 8.218 4.5344 7.2072 3.0532C6.2148 1.6 4.8652 0.6468 4.074 0C4.074 1.228 3.7288 3.0536 3.234 3.984C2.7396 4.914 2.6468 4.948 2.0288 5.64C1.4108 6.332 1.1276 6.546 0.6108 7.386C0.0940002 8.226 0 9.3448 0 10.1672C0 13.5176 2.706 16 6 16Z" fill="#CDFF49"/>
</svg>
