<svg width="18" height="16" viewBox="0 0 18 16" fill="none" xmlns="http://www.w3.org/2000/svg">
<path fill-rule="evenodd" clip-rule="evenodd" d="M13.3255 0.00885293C13.1732 0.0240787 12.9295 0.0849817 12.7924 0.145885C12.6503 0.206788 12.437 0.359045 12.3101 0.485926C12.1882 0.607732 12.0308 0.836119 11.9547 0.988376C11.8481 1.22184 11.8277 1.34364 11.8277 1.69891C11.8277 2.05418 11.8531 2.17598 11.9547 2.38407C12.0207 2.5211 12.173 2.72919 12.2847 2.84084C12.3964 2.9525 12.5893 3.0946 12.7163 3.15551C12.8432 3.21641 12.9904 3.26716 13.0463 3.26716C13.1021 3.26716 13.3103 3.28239 13.5032 3.30269C13.8028 3.32807 13.9094 3.31284 14.1633 3.21641C14.3511 3.14536 14.5593 3.0134 14.7116 2.87129C14.8487 2.74441 15.0162 2.51095 15.0924 2.35869C15.199 2.12523 15.2244 2.00343 15.2244 1.64816C15.2244 1.27767 15.2041 1.18124 15.0924 0.963C15.0213 0.820893 14.8741 0.622958 14.7624 0.516378C14.6558 0.404722 14.4527 0.262615 14.3156 0.191562C14.1734 0.120508 13.9602 0.0443797 13.8333 0.0190034C13.7063 -0.00129757 13.4778 -0.00637282 13.3255 0.00885293ZM10.924 0.46055C10.8225 0.470701 9.4516 0.480851 7.87766 0.480851C5.43043 0.480851 5.00902 0.491002 4.90747 0.55698C4.84147 0.602657 4.79577 0.683861 4.79577 0.75999C4.79577 0.836119 4.84147 0.917323 4.90747 0.963C5.00902 1.02898 5.4152 1.03913 7.82688 1.03913C9.59884 1.03913 10.6701 1.05943 10.7361 1.08988C10.8038 1.12372 10.8377 1.19139 10.8377 1.29289C10.8377 1.39947 10.8732 1.46037 10.9545 1.50098C11.0357 1.54158 11.0966 1.54158 11.1829 1.50098C11.2439 1.47052 11.2946 1.42485 11.2946 1.3944C11.2946 1.36394 11.3505 1.25736 11.4216 1.15078C11.4926 1.04928 11.5587 0.897021 11.5688 0.820893C11.579 0.739689 11.5536 0.633109 11.513 0.582356C11.4723 0.531604 11.3657 0.475776 11.2794 0.465625C11.188 0.4504 11.0306 0.4504 10.924 0.46055ZM7.87258 1.47052L7.80657 1.59741C7.7558 1.69891 7.7558 1.74459 7.81165 1.82579C7.87258 1.91715 7.93858 1.9273 8.61893 1.9273C9.10635 1.9273 9.3399 1.94252 9.31451 1.97805C9.28913 2.01358 9.41098 2.0288 9.675 2.0288C9.89332 2.0288 10.0761 2.01358 10.0761 1.9882C10.0761 1.9679 10.1167 1.95267 10.1675 1.95267C10.2132 1.95267 10.2843 1.9273 10.3198 1.89177C10.3553 1.85624 10.3858 1.76996 10.3909 1.69384C10.396 1.62278 10.3706 1.54158 10.33 1.50605C10.2741 1.46037 9.94409 1.44515 7.87258 1.47052ZM8.57831 2.02373C8.29907 2.02373 8.17213 2.0288 8.29907 2.03895C8.426 2.0491 8.65447 2.0491 8.80679 2.03895C8.95911 2.0288 8.85756 2.02373 8.57831 2.02373ZM11.1017 2.06433C11.056 2.07448 10.9748 2.16076 10.9291 2.25719C10.8783 2.35362 10.7971 2.46527 10.7514 2.5008C10.6803 2.55155 10.3046 2.56678 9.06065 2.56678C8.18229 2.57185 7.21761 2.57693 6.91298 2.59215C6.43064 2.61246 6.36464 2.62261 6.31894 2.71396C6.28848 2.76979 6.27833 2.86114 6.29356 2.91697C6.30879 2.98295 6.38495 3.0337 6.5068 3.06923C6.61342 3.0946 7.64918 3.11998 8.81694 3.13013C9.97963 3.14028 10.924 3.13521 10.9138 3.11998C10.9037 3.10475 11.0052 3.10475 11.1372 3.10983C11.2642 3.11998 11.4317 3.10475 11.5079 3.0743C11.5993 3.03878 11.6602 2.96772 11.6805 2.87637C11.6957 2.80024 11.7008 2.69366 11.6805 2.63783C11.6653 2.582 11.5485 2.42467 11.4216 2.29272C11.2794 2.14046 11.1575 2.05418 11.1017 2.06433ZM12.7924 3.526H10.1269C7.55271 3.526 7.45624 3.53108 7.29377 3.62751C7.20746 3.68333 7.07545 3.80514 7.00945 3.89142C6.94344 3.98277 6.77082 4.28729 6.62358 4.56643C6.47634 4.84557 6.29863 5.17546 6.22755 5.30234C6.16155 5.42922 6.02954 5.66776 5.93815 5.83524C5.84676 6.00272 5.66906 6.33261 5.54213 6.57115C5.42027 6.80969 5.23242 7.14973 5.13087 7.33244C5.02425 7.51515 4.94809 7.70801 4.95824 7.76383C4.97348 7.86026 5.01917 7.86534 5.60813 7.88056C6.15647 7.89071 6.26309 7.88056 6.3951 7.79936C6.5068 7.72831 6.69974 7.42887 7.10084 6.69296C7.40547 6.13975 7.72534 5.56118 7.81165 5.40892C7.89796 5.25666 7.98935 5.1247 8.01982 5.10948C8.05028 5.09425 8.14675 5.0638 8.23306 5.03842C8.32445 5.01812 8.41076 5.01305 8.42092 5.03335C8.43107 5.05873 8.81187 5.07395 9.25866 5.07395C9.71054 5.07395 10.0761 5.08918 10.0761 5.10948C10.0761 5.13485 10.0253 5.25666 9.95932 5.38862C9.89839 5.52565 9.83239 5.64238 9.81716 5.65761C9.79685 5.67283 9.52268 6.13975 9.20789 6.69803C8.8931 7.25631 8.53262 7.90087 8.41584 8.13433C8.23306 8.47944 8.19752 8.59617 8.19752 8.83979C8.19752 9.04787 8.23306 9.21028 8.31937 9.38791C8.38538 9.52494 8.51739 9.70258 8.61385 9.77363C8.70524 9.84469 8.87279 9.95127 8.98449 10.0071C9.09619 10.068 9.83747 10.3776 10.6346 10.7024C11.4317 11.0323 12.1679 11.3368 12.2796 11.3825C12.3862 11.4282 12.5132 11.5094 12.5589 11.5601C12.635 11.6464 12.635 11.6819 12.5487 12.0676C12.4979 12.296 12.305 13.2045 12.1273 14.0825C11.9445 14.9605 11.7922 15.7523 11.7871 15.8335C11.777 15.9756 11.7922 15.9857 11.9648 15.9959C12.1375 16.0111 12.1679 15.9908 12.2745 15.8183C12.3405 15.7167 12.9295 14.7169 13.5794 13.6004C14.2293 12.4838 14.7928 11.4941 14.8284 11.4028C14.869 11.3165 14.8995 11.149 14.8995 11.0374C14.8995 10.9257 14.8639 10.7481 14.8233 10.6415C14.7725 10.5095 14.6456 10.3776 14.407 10.1949C14.2191 10.0528 13.6962 9.73303 13.2494 9.48942C12.8026 9.24073 12.3558 8.99712 12.2593 8.94129C12.1628 8.89054 11.9598 8.77888 11.8125 8.69768C11.5942 8.57587 11.5485 8.52512 11.5485 8.40839C11.5485 8.33226 11.6247 8.15463 11.711 8.0176C11.7973 7.87549 11.8684 7.74353 11.8734 7.71308C11.8785 7.68263 11.9242 7.6065 11.9699 7.53545C12.0207 7.46439 12.3862 6.83506 12.7772 6.13975C13.4423 4.96737 13.4982 4.84557 13.5185 4.56643C13.5337 4.31774 13.5134 4.22131 13.4169 4.03353C13.3306 3.87112 13.224 3.76454 13.0412 3.66811L12.7924 3.526ZM6.42049 3.526L0.916765 3.5463L0.865993 3.68333C0.820297 3.79499 0.830452 3.84067 0.911688 3.92695C1.01323 4.02845 1.05893 4.03353 3.37415 4.04368C5.42535 4.05383 5.73506 4.06398 5.75029 4.12996C5.76045 4.17563 5.72998 4.25176 5.68937 4.30759C5.62336 4.40402 5.55228 4.40909 4.44544 4.42432C3.47061 4.43447 3.26752 4.4497 3.22183 4.5106C3.19644 4.55628 3.18629 4.64763 3.19644 4.71361C3.21167 4.78466 3.26245 4.86079 3.31322 4.88109C3.35892 4.90139 3.80064 4.92677 5.17657 4.96737L5.1918 5.10948C5.20195 5.21606 5.17657 5.26174 5.07502 5.29726C5.00394 5.32771 4.41498 5.34801 3.69401 5.34801C2.55671 5.34801 2.42978 5.35309 2.34347 5.43429C2.28254 5.4952 2.26223 5.57133 2.27746 5.65253C2.2927 5.72358 2.36378 5.80986 2.43486 5.84539C2.52625 5.89107 2.88166 5.90629 4.69423 5.90629V6.03317C4.69423 6.12453 4.65869 6.17528 4.5673 6.21081C4.50129 6.24126 4.24235 6.26156 3.99865 6.26156C3.70417 6.26156 3.53154 6.28186 3.49092 6.32754C3.45538 6.36306 3.42492 6.45442 3.42492 6.53055C3.42492 6.61683 3.46554 6.68788 3.52646 6.71833C3.58231 6.74878 3.72448 6.76908 3.84633 6.76908C3.96311 6.77416 4.09511 6.79446 4.13573 6.81984C4.18143 6.84521 4.23728 6.95687 4.26774 7.06345C4.31344 7.22586 4.33882 7.25631 4.48098 7.26646C4.61299 7.27661 4.66376 7.25123 4.73992 7.13958C4.7907 7.06345 5.18672 6.34784 5.62336 5.55102C6.06 4.75929 6.45095 4.02845 6.49157 3.92695C6.56265 3.76961 6.56265 3.73916 6.49665 3.63766L6.42049 3.526ZM16.7882 3.72901C16.2449 3.72901 16.1332 3.74424 16.0622 3.81529C16.0165 3.86604 15.8032 4.33804 15.59 4.87094C15.3767 5.39877 15.1736 5.85046 15.1279 5.87077C15.0823 5.89614 14.9959 5.86569 14.9045 5.79464C14.8233 5.73373 14.5695 5.52565 14.3461 5.33786C14.1176 5.15008 13.9145 4.99782 13.884 4.99782C13.8586 4.99782 13.8079 5.0232 13.7825 5.05873C13.752 5.09425 13.5895 5.37339 13.422 5.68298C13.2595 5.9875 13.1224 6.28694 13.1224 6.34276C13.1224 6.39859 13.1427 6.46965 13.1631 6.5001C13.1834 6.53562 13.5185 6.83506 13.9094 7.1751C14.3004 7.51515 14.7116 7.83996 14.8233 7.90087C14.9604 7.97192 15.1178 8.01252 15.3057 8.01252C15.4935 8.01252 15.6357 7.98207 15.7372 7.91609C15.8235 7.86026 15.9302 7.76891 15.9758 7.71308C16.0266 7.65725 16.2348 7.1751 16.443 6.64728C16.6511 6.11438 16.971 5.29219 17.1588 4.82019C17.3416 4.34312 17.4939 3.91679 17.499 3.87619C17.5041 3.83052 17.4889 3.77976 17.4686 3.76454C17.4432 3.74424 17.1385 3.72901 16.7882 3.72901ZM8.77125 5.40892C8.53769 5.40384 8.29399 5.42414 8.22291 5.4546C8.15183 5.47997 8.08074 5.54087 8.06551 5.59163C8.05028 5.64238 8.0452 5.72866 8.06044 5.78449C8.07567 5.84031 8.16198 5.91644 8.24829 5.96212C8.33461 6.00272 8.40569 6.0687 8.40569 6.11438C8.40569 6.15498 8.37522 6.21588 8.33968 6.24633C8.30414 6.27679 8.16198 6.31739 8.01982 6.33261C7.88273 6.35291 7.71518 6.40367 7.65426 6.44427C7.58825 6.48487 7.53748 6.56607 7.53748 6.6219C7.53748 6.67773 7.60348 6.76908 7.67964 6.82491C7.7558 6.88074 7.83704 6.93149 7.86242 6.93657C7.88781 6.94672 7.89796 7.00762 7.87766 7.07867C7.86242 7.14465 7.79134 7.23093 7.72026 7.26646C7.64918 7.30199 7.50702 7.33244 7.41055 7.33244C7.30393 7.33244 7.19731 7.36796 7.1313 7.43394C7.07545 7.48977 7.02976 7.5659 7.02976 7.61158C7.02976 7.65218 7.09576 7.73338 7.17192 7.78921C7.26331 7.86026 7.38516 7.89071 7.53748 7.89071C7.66441 7.88564 7.85735 7.84504 7.96905 7.79428C8.08074 7.74353 8.22291 7.63695 8.27876 7.55575C8.33968 7.47454 8.43615 7.31721 8.48692 7.20556C8.54277 7.0939 8.70017 6.80461 8.83218 6.57115C8.96418 6.33261 9.14189 6.01287 9.21805 5.86062C9.29928 5.70328 9.37036 5.55102 9.37544 5.52057C9.38559 5.48505 9.34498 5.44952 9.28913 5.43429C9.23328 5.42414 8.99972 5.40892 8.77125 5.40892ZM4.58253 8.29673C1.57173 8.29673 1.31279 8.30689 1.22648 8.38301C1.18078 8.43377 1.14016 8.52512 1.14016 8.58602C1.14016 8.64693 1.17063 8.71798 1.20617 8.73828C1.24171 8.75858 1.5565 8.78903 1.9119 8.80426C2.26223 8.81441 2.54656 8.80933 2.53133 8.78903C2.52117 8.76873 2.55671 8.75351 2.61256 8.75351C2.66841 8.75351 2.70395 8.77381 2.68872 8.80426C2.67349 8.83471 2.96797 8.85501 3.52646 8.85501C4.08496 8.85501 4.37944 8.83471 4.36421 8.80426C4.34898 8.77381 4.37436 8.75351 4.41498 8.75351C4.4556 8.75351 4.48098 8.76873 4.47083 8.78903C4.46068 8.80933 4.54699 8.82964 4.66884 8.82964C4.7907 8.82964 4.87701 8.80933 4.86685 8.78903C4.8567 8.76873 4.89224 8.75351 4.94809 8.75351C5.00394 8.75351 5.03948 8.77381 5.02425 8.80426C5.00902 8.83471 5.32888 8.85501 5.928 8.86516C6.80636 8.87531 6.85205 8.88546 6.87236 8.98189C6.88252 9.03772 6.84698 9.10878 6.7962 9.1443C6.72512 9.18998 6.43572 9.21028 5.76045 9.21028C5.00902 9.2052 4.80085 9.22043 4.70946 9.28133C4.64346 9.32701 4.59268 9.41329 4.59268 9.47419C4.59268 9.5351 4.61807 9.62137 4.64346 9.66705C4.68407 9.72795 4.8567 9.74826 5.51674 9.76856C6.3291 9.78886 6.34433 9.79393 6.35956 9.90559C6.36464 9.97664 6.33418 10.0375 6.26817 10.0731C6.20724 10.0984 5.46089 10.1289 4.43529 10.134C2.77503 10.1441 2.70395 10.1492 2.63287 10.2507C2.59225 10.3065 2.56179 10.3877 2.56179 10.4385C2.56179 10.4892 2.59733 10.5603 2.64303 10.606C2.70903 10.6669 3.00351 10.6821 6.49665 10.6821L6.62865 10.54C6.70481 10.4639 6.91806 10.1137 7.10592 9.76856C7.29885 9.41836 7.45624 9.1037 7.45624 9.07325C7.46132 9.0428 7.50194 8.97174 7.54764 8.92099C7.59333 8.87024 7.67457 8.72813 7.73549 8.6114C7.79642 8.49467 7.84211 8.37286 7.84211 8.34749C7.84211 8.31196 6.71497 8.29673 4.58253 8.29673ZM7.85735 9.41329C7.79134 9.41329 7.55271 9.79393 7.05514 10.6669C6.51188 11.621 6.30879 11.9408 6.20217 11.9864C6.1057 12.0321 5.69444 12.0524 4.73485 12.0524C3.4503 12.0524 3.39446 12.0524 3.18629 12.1641C3.06951 12.225 2.63287 12.565 2.21654 12.9152C1.8002 13.2603 1.4448 13.5851 1.42449 13.6359C1.40418 13.7019 1.42449 13.7323 1.5108 13.7526C1.57173 13.7679 2.83596 13.7729 4.31344 13.7628C6.69466 13.7526 7.02468 13.7425 7.15669 13.6663C7.243 13.6207 7.47655 13.3923 7.67964 13.1588C7.88781 12.9254 8.11629 12.6665 8.19244 12.5853C8.2686 12.499 8.57324 12.1641 8.86264 11.8443C9.15204 11.5195 9.46683 11.1693 9.55822 11.0678C9.64961 10.9663 9.72069 10.8496 9.72069 10.809C9.72069 10.7633 9.62422 10.6872 9.50745 10.6313C9.38559 10.5755 9.23835 10.5298 9.17743 10.5298C9.1165 10.5298 9.04034 10.4994 8.99972 10.4588C8.96418 10.4233 8.86264 10.3522 8.77125 10.3065C8.67986 10.2609 8.49708 10.1238 8.37015 10.0071C8.24322 9.89036 8.0909 9.70765 8.04013 9.60107C7.98428 9.48942 7.90812 9.41329 7.85735 9.41329ZM3.19137 11.0881C1.55142 11.0881 1.08431 11.0983 1.07416 11.149C1.05893 11.1998 1.0437 11.1998 0.982769 11.149C0.931997 11.1033 0.632441 11.0881 -0.220535 11.0983C-1.28675 11.1084 -1.35784 11.1186 -1.42892 11.215C-1.46953 11.2708 -1.5 11.352 -1.5 11.4028C-1.5 11.4535 -1.45938 11.5246 -1.41368 11.5703C-1.3426 11.6362 -0.905962 11.6464 1.99822 11.6413C4.51145 11.6413 5.34411 11.6261 5.39489 11.5804C5.43043 11.5449 5.46597 11.4637 5.46597 11.3926C5.47105 11.3267 5.4355 11.2302 5.38473 11.1795C5.29334 11.0932 5.15626 11.0881 3.19137 11.0881Z" fill="#CDFF49"/>
</svg>
