<svg width="25" height="24" viewBox="0 0 25 24" fill="none" xmlns="http://www.w3.org/2000/svg">
<path d="M12.875 3C11.4336 3 10.25 4.18359 10.25 5.625C10.25 7.06641 11.4336 8.25 12.875 8.25C14.3164 8.25 15.5 7.06641 15.5 5.625C15.5 4.18359 14.3164 3 12.875 3ZM12.875 4.5C13.5049 4.5 14 4.99512 14 5.625C14 6.25488 13.5049 6.75 12.875 6.75C12.2451 6.75 11.75 6.25488 11.75 5.625C11.75 4.99512 12.2451 4.5 12.875 4.5ZM10.1094 8.4375C9.72266 8.46973 9.3623 8.6543 9.10156 8.95312L7.74219 10.5234C7.56348 10.7285 7.4375 10.9805 7.39062 11.25L6.875 14.1562L8.35156 14.4141L8.86719 11.5078L10.2266 9.9375H10.25L10.8359 10.0547L9.94531 14.0859C9.85449 14.5049 9.95117 14.9355 10.2031 15.2812L14.3516 21H16.2031L11.4219 14.3906L12.3125 10.3359L12.6641 10.4062L13.2266 12.375C13.3584 12.8262 13.6982 13.1924 14.1406 13.3594L16.7891 14.3672L17.3047 12.9609L14.6797 11.9531L14.0938 9.98438C13.9385 9.44238 13.499 9.03516 12.9453 8.92969L10.5078 8.46094C10.3789 8.4375 10.2383 8.42578 10.1094 8.4375ZM9.85156 16.5234L9.47656 17.9766L7.29688 21H9.14844L10.8828 18.6328L10.9766 18.1875L9.85156 16.5234Z" fill="#CDFF49"/>
</svg>
