<svg width="393" height="210" viewBox="0 0 393 210" fill="none" xmlns="http://www.w3.org/2000/svg">
<path d="M255.962 21.9022C260.17 21.9022 263.573 18.4791 263.573 14.2577C263.573 10.0363 260.17 6.61328 255.962 6.61328C251.764 6.61328 248.361 10.0363 248.361 14.2577C248.361 18.4791 251.764 21.9022 255.962 21.9022Z" fill="#AFE4F6"/>
<path d="M370.315 175.197C370.315 175.197 376.328 173.721 378.536 180.141C380.743 186.56 386.158 184.734 386.158 184.734" stroke="#AFE4F6" stroke-width="3.0012" stroke-linecap="round" stroke-linejoin="round"/>
<path d="M337.268 72.1233C337.268 72.1233 338.91 66.1193 345.554 67.3113C352.209 68.4924 353.252 62.8384 353.252 62.8384" stroke="#AFE4F6" stroke-width="3.0012" stroke-linecap="round" stroke-linejoin="round"/>
<path d="M19.9726 183.343C19.9726 183.343 22.1169 177.53 28.6524 179.302C35.1879 181.073 36.7086 175.543 36.7086 175.543" stroke="#AFE4F6" stroke-width="3.0012" stroke-linecap="round" stroke-linejoin="round"/>
<path d="M39.4203 92.4736C39.4203 92.4736 44.6896 91.0861 46.7302 96.7132C48.7613 102.34 53.5036 100.654 53.5036 100.654" stroke="#AFE4F6" stroke-width="2.64421" stroke-linecap="round" stroke-linejoin="round"/>
<path d="M86.2239 152.485L89.8256 147.505L91.5789 153.424L97.4115 155.335L92.3605 158.814L92.3643 164.974L87.4898 161.213L81.661 163.11L83.7003 157.305L80.0945 152.306L86.2239 152.485Z" fill="#FDBE0C"/>
<path d="M337.471 145.335L338.775 144.435L338.7 146.036L339.959 147.005L338.428 147.413L337.901 148.917L337.032 147.581L335.435 147.534L336.437 146.288L335.983 144.769L337.471 145.335Z" stroke="#FDBE0C" stroke-width="2.501"/>
<path d="M352.679 10.8024L351.789 12.1311L351.283 10.6091L349.763 10.1666L351.041 9.22453L350.99 7.62864L352.279 8.55663L353.782 8.01518L353.298 9.53332L354.266 10.7953L352.679 10.8024Z" stroke="#FDBE0C" stroke-width="2.501"/>
<path d="M97.7187 8.35659L101.32 3.37663L103.074 9.29598L108.906 11.2068L103.855 14.6855L103.859 20.846L98.9846 17.0843L93.1559 18.9811L95.1951 13.1762L91.5893 8.17779L97.7187 8.35659Z" fill="#FDBE0C"/>
<mask id="mask0_113_187" style="mask-type:luminance" maskUnits="userSpaceOnUse" x="120" y="198" width="152" height="12">
<path d="M120.062 198.946H271.939V209.76H120.062V198.946Z" fill="white"/>
</mask>
<g mask="url(#mask0_113_187)">
<path d="M189.606 204.538C189.606 203.455 190.495 202.576 191.592 202.576H200.888C201.984 202.576 202.874 203.455 202.874 204.538C202.874 205.621 201.984 206.501 200.888 206.501H191.592C190.495 206.501 189.606 205.621 189.606 204.538Z" fill="#FDBE0C"/>
<path d="M215.752 204.538C215.752 203.455 216.63 202.576 217.719 202.576H267.641C268.73 202.576 269.608 203.455 269.608 204.538C269.608 205.621 268.73 206.501 267.641 206.501H217.719C216.63 206.501 215.752 205.621 215.752 204.538Z" fill="#FDBE0C"/>
<path d="M122.481 204.538C122.481 203.455 123.363 202.576 124.448 202.576H145.49C146.575 202.576 147.457 203.455 147.457 204.538C147.457 205.621 146.575 206.501 145.49 206.501H124.448C123.363 206.501 122.481 205.621 122.481 204.538Z" fill="#FDBE0C"/>
<path d="M161.897 204.538C161.897 203.455 162.787 202.576 163.883 202.576H179.813C180.91 202.576 181.8 203.455 181.8 204.538C181.8 205.621 180.91 206.501 179.813 206.501H163.883C162.787 206.501 161.897 205.621 161.897 204.538Z" fill="#FDBE0C"/>
</g>
<mask id="mask1_113_187" style="mask-type:luminance" maskUnits="userSpaceOnUse" x="120" y="47" width="152" height="151">
<path d="M120.582 47.8257H271.418V197.822H120.582V47.8257Z" fill="white"/>
</mask>
<g mask="url(#mask1_113_187)">
<path d="M122.898 49.1035H269.102V196.544H122.898V49.1035ZM122.898 196.544H269.102V49.1035H122.898V196.544ZM264.164 59.0657H237.488L230.669 117.245H240.109C256.121 117.245 269.102 104.22 269.102 88.1544V64.0197C269.102 61.2845 266.891 59.0657 264.164 59.0657ZM260.132 70.7621L259.257 84.898C258.635 94.9371 251.749 103.483 242.096 106.197L235.118 108.158L237.576 68.1313H257.668C259.031 68.1313 260.137 69.2407 260.137 70.6091L260.132 70.7621Z" fill="#FDBE0C"/>
<path d="M122.898 49.1035H269.102V196.544H122.898V49.1035ZM122.898 196.544H269.102V49.1035H122.898V196.544ZM154.512 59.0657H127.836C125.109 59.0657 122.898 61.2841 122.898 64.0193V88.154C122.898 104.22 135.879 117.245 151.891 117.245H161.331L154.512 59.0657ZM149.904 106.197C140.251 103.483 133.365 94.9371 132.743 84.8976L131.868 70.7617L131.863 70.6087C131.863 69.2403 132.969 68.1313 134.332 68.1313H154.424L156.882 108.158L149.904 106.197Z" fill="#FDBE0C"/>
<path d="M122.898 49.1035H269.102V196.544H122.898V49.1035ZM122.898 196.544H269.102V49.1035H122.898V196.544ZM147.464 194.751C147.464 193.76 148.288 192.957 149.305 192.957H241.903C242.919 192.957 243.744 193.76 243.744 194.751C243.744 195.741 242.919 196.544 241.903 196.544H149.305C148.288 196.544 147.464 195.741 147.464 194.751Z" fill="#FDBE0C"/>
<path d="M122.898 49.1035H269.102V196.544H122.898V49.1035ZM122.898 196.544H269.102V49.1035H122.898V196.544ZM157.207 49.1035H195.861H196.139H234.793C237.33 49.1035 239.386 51.1713 239.386 53.7216V92.4557C239.386 92.4557 239.386 110.43 225.897 126.169C221.98 130.738 218.043 134.092 214.539 137.076C206.878 143.599 201.286 148.359 202.502 160.228L196.139 160.281H195.861L189.498 160.228C190.714 148.359 185.122 143.599 177.462 137.076C173.957 134.092 170.02 130.738 166.103 126.169C152.614 110.43 152.614 92.4557 152.614 92.4557V53.7216C152.614 51.1713 154.67 49.1035 157.207 49.1035Z" fill="#FDBE0C"/>
<path d="M122.898 49.1035H269.102V196.544H122.898V49.1035ZM122.898 196.544H269.102V49.1035H122.898V196.544ZM164.897 159.883H226.707V193.356H164.897V159.883Z" fill="#EAAE02"/>
<path d="M122.898 49.1035H269.102V196.544H122.898V49.1035ZM122.898 196.544H269.102V49.1035H122.898V196.544ZM174.803 167.056H216.801V185.785H174.803V167.056Z" fill="#FDBE0C"/>
<path d="M122.898 49.1035H269.102V196.544H122.898V49.1035ZM122.898 196.544H269.102V49.1035H122.898V196.544ZM196 101.195L182.165 108.478L184.807 93.0515L173.614 82.1261L189.082 79.8755L196 65.84L202.918 79.8755L218.386 82.1261L207.193 93.0515L209.835 108.478L196 101.195Z" fill="#EB6009"/>
<path d="M122.898 49.1035H269.102V196.544H122.898V49.1035ZM122.898 196.544H269.102V49.1035H122.898V196.544ZM161.941 80.9861C163.224 80.9131 164.325 81.8819 164.398 83.1487L164.399 83.1574L164.401 83.1901L164.41 83.3276C164.418 83.4503 164.431 83.6344 164.448 83.8731C164.484 84.3505 164.54 85.0462 164.622 85.9122C164.786 87.6452 165.052 90.0497 165.46 92.7331C166.287 98.1764 167.66 104.489 169.804 108.741C170.377 109.878 169.908 111.258 168.757 111.823C167.606 112.389 166.209 111.926 165.636 110.79C163.143 105.846 161.692 98.9156 160.856 93.4157C160.432 90.6279 160.156 88.1357 159.986 86.3397C159.902 85.4412 159.843 84.7143 159.805 84.2106C159.786 83.9584 159.773 83.7615 159.764 83.6268L159.754 83.4714L159.752 83.43L159.751 83.4148C159.751 83.4144 159.75 83.4129 162.075 83.281L159.751 83.4132C159.677 82.1461 160.657 81.059 161.941 80.9861Z" fill="#EB6009"/>
</g>
</svg>
