<svg width="14" height="19" viewBox="0 0 14 19" fill="none" xmlns="http://www.w3.org/2000/svg">
<path d="M7.00023 0.666504C8.38144 0.666504 9.72856 1.09551 10.8554 1.89423C11.9823 2.69296 12.8332 3.82197 13.2907 5.12523C13.7481 6.42849 13.7895 7.84167 13.409 9.16945C13.0286 10.4972 12.2451 11.6741 11.1669 12.5373V16.379C11.1669 16.5271 11.131 16.673 11.0623 16.8042C10.9936 16.9354 10.8941 17.048 10.7724 17.1323C10.6507 17.2167 10.5104 17.2703 10.3634 17.2886C10.2164 17.3069 10.0672 17.2893 9.92856 17.2373L7.00023 16.1407L4.0719 17.239C3.93315 17.291 3.78387 17.3086 3.63685 17.2903C3.48982 17.2719 3.34942 17.2182 3.22769 17.1338C3.10595 17.0493 3.00651 16.9366 2.93787 16.8053C2.86922 16.674 2.83344 16.528 2.83356 16.3798V12.5382C1.75502 11.675 0.971254 10.4981 0.590606 9.17016C0.209958 7.84223 0.251229 6.42883 0.708714 5.12537C1.1662 3.8219 2.0173 2.69274 3.14437 1.89398C4.27144 1.09521 5.61881 0.666288 7.00023 0.666504ZM7.00023 2.33317C5.67415 2.33317 4.40238 2.85996 3.4647 3.79764C2.52701 4.73532 2.00023 6.00709 2.00023 7.33317C2.00023 8.65925 2.52701 9.93102 3.4647 10.8687C4.40238 11.8064 5.67415 12.3332 7.00023 12.3332C8.32631 12.3332 9.59808 11.8064 10.5358 10.8687C11.4734 9.93102 12.0002 8.65925 12.0002 7.33317C12.0002 6.00709 11.4734 4.73532 10.5358 3.79764C9.59808 2.85996 8.32631 2.33317 7.00023 2.33317ZM7.00023 3.99984C7.88428 3.99984 8.73213 4.35103 9.35725 4.97615C9.98237 5.60127 10.3336 6.44912 10.3336 7.33317C10.3336 8.21723 9.98237 9.06507 9.35725 9.69019C8.73213 10.3153 7.88428 10.6665 7.00023 10.6665C6.11617 10.6665 5.26833 10.3153 4.64321 9.69019C4.01809 9.06507 3.6669 8.21723 3.6669 7.33317C3.6669 6.44912 4.01809 5.60127 4.64321 4.97615C5.26833 4.35103 6.11617 3.99984 7.00023 3.99984Z" fill="#3F79C4"/>
</svg>
